<?xml version="1.0" encoding="UTF-8"?>
<svg id="Layer_2" data-name="Layer 2" xmlns="http://www.w3.org/2000/svg" viewBox="0 0 514.43 480.03">
  <defs>
    <style>
      .cls-1 {
        fill: #5ebb46;
        stroke: #5ebb46;
      }

      .cls-1, .cls-2, .cls-3 {
        stroke-miterlimit: 10;
      }

      .cls-2 {
        fill: #5f3394;
      }

      .cls-2, .cls-3 {
        stroke: #5f3394;
      }

      .cls-3 {
        fill: #4e97b8;
      }
    </style>
  </defs>
  <g id="Spakrans_Main_NoText" data-name="Spakrans Main NoText">
    <g id="Spakrans_Main_NoText-2" data-name="Spakrans Main NoText-2">
      <path id="Top_of_Helmet" data-name="Top of Helmet" class="cls-2" d="M396.68,170.91s-62.49,34.24-122.51,66.75c-25.09,13.58-53.56,14.53-58.33,14.53-78.43,0-70.72-70.72-70.17-74.47,110.61-105.35,231.82-23.25,251.02-6.8h0Z"/>
      <path id="Circle" class="cls-3" d="M158.97,254.16c-35.51,0-64.39,28.77-64.39,64.13s28.89,64.12,64.39,64.12,64.39-28.77,64.39-64.12-28.89-64.13-64.39-64.13h0ZM212.89,313.15l-5.77.1c-1.04-10.01-5.19-19.08-11.42-26.33l4.02-4.09c7.27,8.28,12.08,18.76,13.18,30.31h-.01ZM189.64,280.98c-7.32-5.98-16.44-9.83-26.42-10.7v-5.74c11.52.9,22.06,5.37,30.44,12.34l-4.03,4.1h0ZM154.71,270.28c-9.98.86-19.09,4.72-26.42,10.7l-4.03-4.1c8.39-6.98,18.92-11.45,30.44-12.34v5.74h0ZM128.29,355.59c7.32,5.98,16.44,9.83,26.42,10.7v5.74c-11.52-.9-22.06-5.37-30.44-12.34l4.03-4.1h0ZM163.22,366.29c9.98-.86,19.09-4.72,26.42-10.7l4.03,4.1c-8.39,6.98-18.91,11.45-30.44,12.34v-5.74h0ZM118.22,282.83l4.02,4.09c-6.56,7.62-10.76,17.29-11.51,27.92l-5.77.1c.76-12.26,5.62-23.4,13.27-32.11h-.01ZM105.05,323.42l5.77-.1c1.04,10.01,5.19,19.08,11.42,26.32l-4.02,4.09c-7.27-8.28-12.08-18.76-13.18-30.31h.01ZM199.71,353.73l-4.02-4.09c6.56-7.62,10.76-17.29,11.51-27.92l5.77-.1c-.76,12.26-5.62,23.4-13.27,32.11h.01Z"/>
      <path id="Chin_Bar" data-name="Chin Bar" class="cls-2" d="M467.04,452.59c0,9.58-2.01,18.69-5.63,26.94h-149.34l-22.99-33.04-4.98-7.16-38.31-2.94-5.67-.44-20.24-13.21-50.91-33.24c23.71-3.12,43.82-17.73,54.5-38.01l24.99,2.98,8.6,1.03c.78.15,1.57.26,2.37.35l2.87.33,2.65.31,20.78,2.43,43.92,74.32c1.08,1.78,2.35,3.43,3.79,4.92,4,4.18,9.2,7.1,14.87,8.32,2,.44,4.05.67,6.13.67h112.38c.15,1.79.22,3.6.22,5.43h0Z"/>
      <g id="Chin_bar_Bezel" data-name="Chin bar Bezel">
        <path class="cls-2" d="M460.8,429.35h-106.36c-3.86,0-7.48-2.02-9.46-5.27l-4.06-6.88-40.32-68.21c-2.59-4.24-7.07-7.11-11.99-7.64l-27.11-3.18c-7.87-.88-14.46-6.32-16.77-13.87l-.03-.08-6.07-28.94c0-.08-.03-.16-.07-.27-2.64-8.98,1.27-18.38,9.49-22.87l163.46-88.78c-2.01-1.97-4.05-3.9-6.13-5.8l-161.2,87.55c-11.47,6.28-16.98,19.41-13.4,31.92l.02.07,6.07,28.93c.02.12.05.23.07.29,3.17,10.77,12.45,18.54,23.65,19.79l27.11,3.18c2.48.28,4.71,1.7,5.99,3.8l44.39,75.09c3.44,5.66,9.71,9.18,16.37,9.18h108.84c-.66-2.74-1.49-5.42-2.48-8.01h0Z"/>
      </g>
      <path class="cls-2" d="M158.97,254.16c-35.51,0-64.39,28.77-64.39,64.13s28.89,64.12,64.39,64.12,64.39-28.77,64.39-64.12-28.89-64.13-64.39-64.13h0ZM212.89,313.15l-5.77.1c-1.04-10.01-5.19-19.08-11.42-26.33l4.02-4.09c7.27,8.28,12.08,18.76,13.18,30.31h-.01ZM189.64,280.98c-7.32-5.98-16.44-9.83-26.42-10.7v-5.74c11.52.9,22.06,5.37,30.44,12.34l-4.03,4.1h0ZM154.71,270.28c-9.98.86-19.09,4.72-26.42,10.7l-4.03-4.1c8.39-6.98,18.92-11.45,30.44-12.34v5.74h0ZM128.29,355.59c7.32,5.98,16.44,9.83,26.42,10.7v5.74c-11.52-.9-22.06-5.37-30.44-12.34l4.03-4.1h0ZM163.22,366.29c9.98-.86,19.09-4.72,26.42-10.7l4.03,4.1c-8.39,6.98-18.91,11.45-30.44,12.34v-5.74h0ZM118.22,282.83l4.02,4.09c-6.56,7.62-10.76,17.29-11.51,27.92l-5.77.1c.76-12.26,5.62-23.4,13.27-32.11h-.01ZM105.05,323.42l5.77-.1c1.04,10.01,5.19,19.08,11.42,26.32l-4.02,4.09c-7.27-8.28-12.08-18.76-13.18-30.31h.01ZM199.71,353.73l-4.02-4.09c6.56-7.62,10.76-17.29,11.51-27.92l5.77-.1c-.76,12.26-5.62,23.4-13.27,32.11h.01Z"/>
      <path id="Hair" class="cls-1" d="M291.82,77.87c-14.96-27.89-2.8-59.6,6.67-77.11h-23.72c-5.87,9.83-8.64,18.78-8.16,36.12-5-10.72-7.86-22.18-5.11-35.6l-81.27,13.54c-5.46,22.34-4.02,29.04,0,49.33-4.49-3.52-16.04-29.38-13.98-44.7l-64.58,34.11c-1.72,7.14-.88,15.16.98,23.53-1.11-1.4-6.82-9.56-8.64-19.42l-7.7,6.34c.44,7.01.25,26.79,12.49,41.03-5.61-.54-22.54-21.72-25.01-30.53l-29.58,40.13s-1.68,7.68,0,10.96,7.06,13.33,9.95,21.92c-5.45-6.87-11.22-12.61-17.34-17.08l-7.65,20.63c12.12,6.82,16.06,19.06,18.48,23.97l.18.4c-3.61-5.37-15.68-15.37-21.49-14.91l-4.96,88.31c7.21,6.86,20.22,38.7,20.22,38.7-3.11-4.4-20.93-15.5-20.93-15.5,7.13,18.72,15.05,42.69,18.78,67.96,3.73,25.26,1.59,57.01,1.59,57.01l15.6-12.05s-19.38,61.33-54.94,84.3c43.24,0,75.52-36.58,78.7-61.96l3.04-60.03c-2.68-8.45-6.27-23.08-17.42-34.06l21.1,12.31.96-78.67c-7.2-7.09-20.86-41.35-20.86-41.35,7.7,14.45,22.98,24.13,22.98,24.13l22.22-38.17c-5.88-5.69-10.84-13.12-15.29-21.51,6.43,6.7,12.82,12.19,19.14,14.29l6.06-7.44c-3.84-2.79-17.11-15.77-18.92-32.13,6.18,8.86,15.73,17.43,26.27,25.91l34.51-26.81c-7.12-11.21-13.32-21.94-14.4-29.91,8.19,8.26,17.06,15.31,26.95,20.53l42.08-15.49c-1.66-7.69-.34-17.71,1.66-28.26-.46,9.43,14.81,24.8,14.81,24.8l.79-.21c-3.72-13.21-2.12-34.15,1.02-53.46-.9,13.22,10.82,49.46,13.33,50.3l84.44,7.73c8.23-27.64,31.82-41.32,31.82-41.32-5.65,5.73-18.81,33.63-19.34,46.91,1.89.95,44.9,22.53,44.9,22.53-4.01-16.77,5.02-46.8,18.59-48.91,0,0-11.02,21.29-5.6,33.53,26.47-45.41,86.71-64.92,107.82-70.88-8.07-4.04-105.38-56.02-195.88-61.15-14.34,15.83-23.94,39.67-25.37,77.38v-.04.02Z"/>
      <g>
        <path class="cls-1" d="M377.12,213.88c-.72-.29-1.37-.39-2.09.1-.83.56-1.71,1.07-2.64,1.42-.95.36-1.31,1.04-1.46,1.93-.43,2.71,1.69,5.17,4.45,5.17,2.17,0,4.03-1.54,4.44-3.66.39-2.04-.77-4.16-2.71-4.96h0Z"/>
        <path class="cls-1" d="M383.89,377.98c0,.55.39.7.65.72.31.02,1.19,0,1.19-.64s-.82-.83-1.04-.79c-.31.06-.81.17-.81.72h.01Z"/>
        <path class="cls-1" d="M445.59,368.62c.03,2.76,2.34,5.07,5.12,5.1,2.81.03,5.2-2.32,5.21-5.13,0-2.81-2.36-5.17-5.18-5.16-2.82,0-5.18,2.39-5.15,5.18h0Z"/>
        <path class="cls-1" d="M384.63,357.64c-.93,0-1.29,1.04-1.27,1.54.02.45.38,1.24,1.19,1.24s1.43-.44,1.33-1.23c-.07-.55-.33-1.56-1.26-1.56h.01Z"/>
        <path class="cls-1" d="M399.91,200.49c-2.63,1.42-5.04,2.72-7.47,4.04,2.79,1.38,6.41-.46,7.47-4.04Z"/>
        <path class="cls-1" d="M394.27,223.48c3.11,0,5.53-2.42,5.5-5.53-.03-3.04-2.46-5.4-5.52-5.39-3.05.02-5.44,2.42-5.44,5.47s2.4,5.44,5.46,5.44h0Z"/>
        <path class="cls-1" d="M409.9,208.82c.07-3.43-2.56-6.24-5.92-6.32-3.49-.09-6.33,2.58-6.39,5.99-.05,3.42,2.61,6.2,5.98,6.27,3.43.06,6.25-2.58,6.33-5.93h0Z"/>
        <path class="cls-1" d="M387.34,213.12c2.43-1.33,3.32-4.18,2.03-6.91-3.05,1.66-6.02,3.27-9.01,4.9,1.61,2.58,4.49,3.38,6.98,2.01h0Z"/>
        <path class="cls-1" d="M422.51,413.27c-1.3-.06-2.44,1-2.46,2.29-.03,1.25.98,2.33,2.24,2.39,1.3.06,2.44-1,2.46-2.29.03-1.25-.98-2.33-2.24-2.39Z"/>
        <path class="cls-1" d="M422.38,393.96c-1.58,0-2.82,1.24-2.83,2.82,0,1.59,1.22,2.83,2.8,2.85,1.64.02,2.91-1.25,2.89-2.88-.02-1.58-1.28-2.8-2.86-2.79h0Z"/>
        <path class="cls-1" d="M422.36,374.65c-1.88.02-3.32,1.49-3.3,3.37.02,1.87,1.5,3.3,3.39,3.28,1.88-.02,3.32-1.49,3.3-3.37-.02-1.87-1.5-3.3-3.39-3.28Z"/>
        <path class="cls-1" d="M422.45,355.36c-2.15-.02-3.84,1.62-3.86,3.74-.02,2.14,1.63,3.82,3.76,3.84,2.15.02,3.84-1.62,3.86-3.74.02-2.14-1.62-3.82-3.76-3.84Z"/>
        <path class="cls-1" d="M412.93,384.84c-1.36,0-2.55,1.22-2.53,2.56,0,1.35,1.22,2.54,2.57,2.52,1.36,0,2.55-1.22,2.53-2.56,0-1.35-1.22-2.54-2.57-2.52Z"/>
        <path class="cls-1" d="M413.01,365.54c-1.65-.04-3.11,1.4-3.09,3.05.02,1.62,1.42,2.99,3.03,2.99s3.01-1.38,3.03-2.99-1.35-3.01-2.97-3.05h0Z"/>
        <path class="cls-1" d="M431.87,364.45c-2.31,0-4.2,1.89-4.16,4.19.04,2.26,1.92,4.08,4.17,4.06,2.27-.03,4.1-1.87,4.1-4.13s-1.85-4.1-4.11-4.12h0Z"/>
        <path class="cls-1" d="M441.32,373.55c-2.4-.02-4.45,2-4.46,4.4-.02,2.39,2.01,4.43,4.42,4.44,2.4.02,4.45-2,4.46-4.4.02-2.39-2.01-4.43-4.42-4.44Z"/>
        <path class="cls-1" d="M441.25,392.81c-2.17.03-3.95,1.82-3.96,3.99,0,2.21,1.84,4.03,4.06,3.99,2.17-.03,3.95-1.82,3.96-3.99,0-2.21-1.84-4.03-4.06-3.99Z"/>
        <path class="cls-1" d="M450.78,392.09c2.6,0,4.7-2.15,4.69-4.73,0-2.59-2.16-4.68-4.75-4.68s-4.7,2.15-4.69,4.73c0,2.59,2.16,4.68,4.75,4.68Z"/>
        <path class="cls-1" d="M450.87,401.95c-2.46-.05-4.39,1.8-4.41,4.22-.02,2.38,1.83,4.27,4.21,4.3,2.4.03,4.31-1.8,4.35-4.17.04-2.39-1.78-4.31-4.15-4.36h0Z"/>
        <path class="cls-1" d="M441.36,412.08c-1.96-.03-3.55,1.48-3.61,3.42-.06,2,1.5,3.63,3.49,3.66,1.96.03,3.55-1.48,3.61-3.42.06-2-1.5-3.63-3.49-3.66Z"/>
        <path class="cls-1" d="M431.83,383.71c-2.01,0-3.69,1.71-3.67,3.69,0,2,1.71,3.68,3.71,3.66,2.01,0,3.69-1.71,3.67-3.69,0-2-1.71-3.68-3.71-3.66Z"/>
        <path class="cls-1" d="M441.26,364.01c2.67.03,4.89-2.18,4.9-4.83,0-2.62-2.12-4.78-4.76-4.85s-4.91,2.11-4.96,4.77c-.05,2.65,2.15,4.88,4.82,4.91Z"/>
        <path class="cls-1" d="M431.88,403.02c-1.72,0-3.15,1.35-3.22,3.08-.07,1.75,1.34,3.24,3.11,3.29,1.76.05,3.25-1.37,3.28-3.14.03-1.75-1.41-3.22-3.18-3.23h.01Z"/>
        <path class="cls-1" d="M412.99,404.24c-1.13-.02-2.03.86-2.02,1.99s.93,1.99,2.06,1.95c1.08-.04,1.91-.91,1.9-1.99,0-1.09-.86-1.93-1.94-1.95Z"/>
        <path class="cls-1" d="M403.53,414.68c-.4,0-.93.6-.96.97-.04.35,0,1.48,1.02,1.48,1.28,0,.91-1.2.88-1.59-.03-.33-.27-.87-.93-.86h-.01Z"/>
        <path class="cls-1" d="M394.18,366.84c-1.01-.06-1.82.67-1.86,1.68-.03.96.67,1.72,1.62,1.78,1.01.06,1.82-.67,1.85-1.68.03-.96-.67-1.72-1.62-1.78h0Z"/>
        <path class="cls-1" d="M392.99,387.3c0,.42.11,1.23.96,1.23s1.07-.69,1.19-1.14c.09-.34-.14-1.27-1.06-1.27s-1.1.77-1.09,1.18h0Z"/>
        <path class="cls-1" d="M403.52,356.53c-1.48,0-2.62,1.1-2.66,2.56-.03,1.52,1.11,2.7,2.63,2.71,1.48,0,2.62-1.1,2.66-2.56.03-1.52-1.11-2.7-2.63-2.71Z"/>
        <path class="cls-1" d="M403.5,375.85c-1.17,0-2.1.89-2.14,2.05-.04,1.22.89,2.19,2.09,2.22,1.21.03,2.18-.9,2.19-2.11,0-1.22-.93-2.16-2.15-2.16h.01Z"/>
        <path class="cls-1" d="M403.53,395.25c-.91.03-1.46.55-1.56,1.44-.1.83.62,1.62,1.48,1.66.85.05,1.61-.66,1.64-1.51.03-.84-.7-1.63-1.55-1.6h-.01Z"/>
        <g>
          <path class="cls-1" d="M356.5,233.87c-1.58,0-2.93,1.31-2.99,2.89-.06,1.61,1.3,3.03,2.93,3.07,1.62.04,3.03-1.33,3.05-2.95s-1.37-3.01-2.99-3.01h0Z"/>
          <path class="cls-1" d="M356.74,253.26c-1.42-.12-2.57.85-2.65,2.22-.09,1.41.92,2.53,2.3,2.59,1.37.06,2.45-.9,2.53-2.23.08-1.36-.86-2.47-2.18-2.58Z"/>
          <path class="cls-1" d="M365.86,281.58c-1.21.05-2.23,1.12-2.23,2.31s1.1,2.33,2.35,2.31,2.33-1.13,2.29-2.37c-.04-1.24-1.17-2.31-2.41-2.25h0Z"/>
          <path class="cls-1" d="M365.98,300.98c-.96,0-1.72.7-1.76,1.65-.05,1.01.7,1.8,1.71,1.81.96,0,1.72-.7,1.76-1.65.05-1.01-.7-1.8-1.71-1.81Z"/>
          <path class="cls-1" d="M364.56,321.51c0,.85.78,1.01,1.23,1.09.35.06,1.55-.2,1.55-1.13s-1.24-1.06-1.63-1.02c-.42.05-1.15.2-1.15,1.06h0Z"/>
          <path class="cls-1" d="M365.92,262.25c-1.52.02-2.77,1.25-2.8,2.75-.03,1.55,1.24,2.86,2.8,2.88s2.86-1.26,2.86-2.81-1.3-2.83-2.85-2.82h0Z"/>
          <path class="cls-1" d="M347.01,263.63c-.88.02-1.39.52-1.41,1.39-.02.93.49,1.47,1.43,1.49s1.41-.54,1.5-1.45c-.1-.91-.57-1.45-1.52-1.43Z"/>
          <path class="cls-1" d="M347.04,244.15c-1.13,0-2.09.96-2.1,2.09,0,1.18,1,2.17,2.18,2.12,1.13-.04,2.07-1.02,2.04-2.15-.02-1.13-.99-2.07-2.13-2.06h.01Z"/>
          <path class="cls-1" d="M356.41,272.57c-1.05.04-1.83.85-1.83,1.91s.84,1.92,1.95,1.91c1.1,0,1.92-.86,1.89-1.97-.03-1.1-.9-1.89-2.01-1.85h0Z"/>
          <path class="cls-1" d="M356.6,292.04c-.77-.22-1.44.39-1.38,1.18.05.55.38,1.57.93,1.59s-.12.03.56.03,1.03-1,1.03-1.5c0-.45-.66-1.15-1.15-1.28h0v-.02Z"/>
          <path class="cls-1" d="M349.52,227.84c-1.25.69-2.29,1.26-3.37,1.85,1.55.59,2.71,0,3.37-1.85Z"/>
          <path class="cls-1" d="M375.15,310.01c-1.13,0-2.09.96-2.1,2.09,0,1.18,1,2.17,2.18,2.12,1.13-.04,2.07-1.02,2.04-2.15-.02-1.13-.99-2.07-2.13-2.06h.01Z"/>
          <path class="cls-1" d="M365.92,242.96c-1.81.02-3.29,1.52-3.27,3.32s1.53,3.27,3.34,3.25,3.29-1.52,3.27-3.32-1.53-3.27-3.34-3.25h0Z"/>
          <path class="cls-1" d="M375.39,252.04c-2.05,0-3.65,1.63-3.63,3.67.02,1.99,1.59,3.56,3.59,3.59,2.05.03,3.68-1.57,3.69-3.61,0-2.03-1.6-3.65-3.65-3.65h0Z"/>
          <path class="cls-1" d="M384.8,232.2c2.69.02,4.81-2.05,4.83-4.72.02-2.68-2.06-4.79-4.74-4.81s-4.81,2.05-4.83,4.72c-.02,2.68,2.06,4.79,4.74,4.81Z"/>
          <path class="cls-1" d="M375.45,271.36c-1.76-.02-3.15,1.3-3.19,3.05-.04,1.8,1.35,3.21,3.15,3.2,1.76,0,3.12-1.35,3.13-3.11,0-1.75-1.34-3.13-3.09-3.15h0Z"/>
          <path class="cls-1" d="M375.4,232.8c-2.26,0-4.04,1.73-4.06,3.98-.03,2.31,1.74,4.11,4.05,4.11s4.04-1.73,4.06-3.98c.03-2.31-1.74-4.11-4.05-4.11Z"/>
          <path class="cls-1" d="M375.52,290.66c-1.54-.05-2.73,1.07-2.76,2.58-.02,1.47,1.07,2.64,2.53,2.69,1.54.05,2.73-1.07,2.76-2.58.02-1.47-1.07-2.64-2.53-2.69Z"/>
          <path class="cls-1" d="M374.3,349.76c0,.54.49.84.8.86.36.02,1.11-.2,1.11-.87s-.69-.91-.96-.86c-.37.07-.94.33-.94.87h0Z"/>
          <path class="cls-1" d="M365.93,223.68c-2.07,0-3.75,1.7-3.76,3.75,0,2.06,1.67,3.75,3.74,3.77,2.11.02,3.84-1.71,3.82-3.81-.03-2.05-1.73-3.72-3.8-3.71h0Z"/>
          <path class="cls-1" d="M346.13,283.93c0,.82.61.82.92.82.36,0,1.37-.07,1.37-.9s-1.05-.9-1.33-.83c-.37.09-.95.09-.95.91h-.01Z"/>
          <path class="cls-1" d="M375.12,329.38c-.86.02-1.59.78-1.52,1.63.09.9.63,1.42,1.54,1.48.85.05,1.58-.71,1.58-1.56s-.75-1.57-1.6-1.55h0Z"/>
          <path class="cls-1" d="M438.26,274.42c-.02-3.39-2.75-6.09-6.16-6.09s-6.19,2.73-6.17,6.19c.02,3.39,2.75,6.09,6.16,6.09s6.19-2.73,6.17-6.19Z"/>
          <path class="cls-1" d="M441.63,296.65c-3.3-.08-6.12,2.66-6.18,5.98-.06,3.29,2.71,6.09,6.03,6.13,3.32.03,6.11-2.72,6.12-6.04,0-3.26-2.68-5.99-5.97-6.07Z"/>
          <path class="cls-1" d="M457.08,312.12c0-3.42-2.86-6.28-6.3-6.3-3.47-.02-6.41,2.91-6.36,6.36.04,3.43,2.93,6.27,6.36,6.24,3.44-.02,6.3-2.88,6.3-6.3Z"/>
          <path class="cls-1" d="M432.16,287.52c-3.16-.06-5.8,2.5-5.88,5.67-.08,3.19,2.57,5.87,5.79,5.88,3.17,0,5.79-2.57,5.82-5.73.03-3.15-2.54-5.76-5.73-5.82Z"/>
          <path class="cls-1" d="M422.62,289.37c3.1,0,5.54-2.43,5.52-5.52-.02-3.04-2.43-5.43-5.48-5.44-3.1,0-5.54,2.43-5.52,5.52.02,3.04,2.43,5.43,5.48,5.44Z"/>
          <path class="cls-1" d="M413.23,269.27c-2.94-.02-5.26,2.25-5.28,5.17-.02,2.93,2.26,5.23,5.2,5.25s5.26-2.25,5.28-5.17c.02-2.93-2.26-5.23-5.2-5.25Z"/>
          <path class="cls-1" d="M456.67,330.95c0-3.28-2.62-5.9-5.91-5.9s-5.92,2.61-5.92,5.88,2.62,5.9,5.91,5.9,5.92-2.61,5.92-5.88Z"/>
          <path class="cls-1" d="M441.39,345.57c2.92-.04,5.2-2.35,5.17-5.28-.02-2.92-2.34-5.18-5.28-5.17-2.93,0-5.23,2.3-5.23,5.22s2.34,5.27,5.33,5.23h.01Z"/>
          <path class="cls-1" d="M456.28,349.92c.1-3.07-2.29-5.59-5.39-5.67-3.08-.08-5.6,2.32-5.67,5.4-.07,3.07,2.36,5.57,5.45,5.62,3.04.05,5.5-2.3,5.61-5.34h0Z"/>
          <path class="cls-1" d="M441.25,327.16c3.14.02,5.72-2.53,5.72-5.66s-2.53-5.61-5.62-5.64c-3.14-.02-5.72,2.53-5.72,5.66s2.53,5.61,5.62,5.64Z"/>
          <path class="cls-1" d="M431.87,306.73c-2.95,0-5.42,2.43-5.43,5.37,0,2.94,2.44,5.4,5.39,5.41,2.95,0,5.42-2.43,5.43-5.37,0-2.94-2.44-5.4-5.39-5.41Z"/>
          <path class="cls-1" d="M337.53,235.23c-.94.1-1.5.66-1.55,1.61-.05.88.76,1.65,1.64,1.64.89,0,1.64-.79,1.61-1.68-.03-.88-.84-1.66-1.71-1.57h0Z"/>
          <path class="cls-1" d="M336.45,255.67c0,1.08.79,1,1.25,1.07.35.05,1.53-.17,1.54-1.16s-1.25-1.04-1.65-.99c-.42.06-1.13,0-1.13,1.08h-.01Z"/>
          <path class="cls-1" d="M422.64,259.17c-3.3,0-5.91,2.62-5.91,5.89s2.63,5.89,5.91,5.89,5.91-2.62,5.91-5.89-2.63-5.89-5.91-5.89Z"/>
          <path class="cls-1" d="M413.17,250.02c-3.09,0-5.62,2.54-5.64,5.61-.02,3.13,2.55,5.68,5.69,5.67,3.09,0,5.62-2.54,5.64-5.61.02-3.13-2.55-5.68-5.69-5.67h0Z"/>
          <path class="cls-1" d="M403.71,251.63c2.94.02,5.42-2.44,5.42-5.37s-2.49-5.39-5.42-5.37c-2.9.02-5.32,2.42-5.36,5.31-.04,2.92,2.42,5.41,5.36,5.43Z"/>
          <path class="cls-1" d="M394.32,231.75c-2.79-.03-5.12,2.27-5.15,5.06-.03,2.77,2.28,5.1,5.08,5.13,2.79.03,5.12-2.27,5.15-5.06.03-2.77-2.28-5.1-5.08-5.13Z"/>
          <path class="cls-1" d="M403.68,221.7c-3.21.04-5.75,2.62-5.71,5.8.04,3.2,2.63,5.72,5.83,5.68,3.21-.04,5.75-2.62,5.71-5.8-.04-3.2-2.63-5.72-5.83-5.68Z"/>
          <path class="cls-1" d="M419.24,236.95c.08-3.29-2.67-6.1-6.01-6.13-3.28-.03-6.01,2.63-6.09,5.93-.08,3.29,2.67,6.1,6.01,6.13,3.28.03,6.01-2.63,6.09-5.93Z"/>
          <path class="cls-1" d="M355.55,312.15c0,.75.42.68.68.69.31,0,1.17.07,1.17-.69s-.85-.8-1.07-.75c-.31.07-.78,0-.78.74h0Z"/>
          <path class="cls-1" d="M422.4,326.21c2.58,0,4.72-2.15,4.7-4.71s-2.18-4.69-4.76-4.66c-2.58.03-4.69,2.22-4.65,4.77.05,2.53,2.18,4.6,4.7,4.6h0Z"/>
          <path class="cls-1" d="M422.67,307.83c2.79-.02,5.11-2.35,5.11-5.13s-2.33-5.1-5.12-5.12c-2.78-.02-5.13,2.28-5.17,5.07-.04,2.8,2.35,5.2,5.18,5.17h0Z"/>
          <path class="cls-1" d="M413.12,346.26c-1.89-.11-3.58,1.44-3.68,3.35-.09,1.83,1.41,3.48,3.29,3.63s3.6-1.37,3.73-3.29c.13-1.87-1.42-3.58-3.34-3.69h0Z"/>
          <path class="cls-1" d="M412.99,307.72c-2.4-.03-4.45,1.99-4.45,4.38s2.03,4.42,4.43,4.4c2.41-.02,4.43-2.06,4.39-4.44-.04-2.36-2-4.32-4.37-4.34Z"/>
          <path class="cls-1" d="M422.44,336.1c-2.37-.02-4.28,1.85-4.3,4.2-.02,2.36,1.86,4.26,4.22,4.28,2.37.02,4.28-1.85,4.3-4.2.02-2.36-1.86-4.26-4.22-4.28Z"/>
          <path class="cls-1" d="M412.98,326.96c-2.16-.02-4,1.78-4.02,3.94-.02,2.15,1.79,3.98,3.96,4,2.16.02,4-1.78,4.02-3.94.02-2.15-1.79-3.98-3.96-4Z"/>
          <path class="cls-1" d="M431.9,335.89c2.75-.02,4.92-2.21,4.93-4.95,0-2.78-2.22-4.99-5.03-4.97-2.75.02-4.92,2.21-4.93,4.95,0,2.78,2.22,4.99,5.03,4.97Z"/>
          <path class="cls-1" d="M431.96,345.22c-2.57-.05-4.61,1.89-4.66,4.43-.05,2.56,1.9,4.59,4.45,4.64,2.57.05,4.61-1.89,4.66-4.43.05-2.56-1.9-4.59-4.45-4.64Z"/>
          <path class="cls-1" d="M394.12,328.11c-1.55-.03-2.87,1.23-2.88,2.79-.02,1.55,1.28,2.84,2.83,2.84s2.84-1.3,2.82-2.85c-.02-1.51-1.26-2.75-2.78-2.78h.01Z"/>
          <path class="cls-1" d="M394.08,347.44c-1.24,0-2.35,1.08-2.34,2.32,0,1.24,1.11,2.33,2.36,2.3,1.25-.02,2.32-1.14,2.28-2.38-.04-1.21-1.09-2.23-2.3-2.24Z"/>
          <path class="cls-1" d="M394.24,308.82c-1.84-.08-3.39,1.27-3.49,3.07-.11,1.88,1.29,3.46,3.14,3.54,1.89.08,3.44-1.33,3.49-3.19.05-1.83-1.34-3.34-3.14-3.42Z"/>
          <path class="cls-1" d="M394.22,260.35c2.57.05,4.75-2.07,4.78-4.64s-2.11-4.72-4.68-4.73c-2.53,0-4.66,2.06-4.72,4.58-.06,2.56,2.05,4.74,4.63,4.79h-.01Z"/>
          <path class="cls-1" d="M384.58,319.04c-1.35.02-2.46,1.15-2.46,2.48s1.12,2.47,2.46,2.48c1.35.02,2.49-1.08,2.52-2.42.04-1.38-1.13-2.56-2.52-2.54Z"/>
          <path class="cls-1" d="M384.87,299.68c-1.66,0-3.1,1.45-3.05,3.1.05,1.62,1.47,2.98,3.08,2.95,1.62-.03,3-1.43,2.99-3.04,0-1.61-1.4-3-3.02-3.01Z"/>
          <path class="cls-1" d="M384.87,261.12c-2.11,0-3.91,1.72-3.99,3.84s1.72,4,3.89,4.06c2.14.06,4.01-1.74,4.04-3.9.04-2.14-1.78-3.98-3.95-4h0Z"/>
          <path class="cls-1" d="M413.24,298.1c2.66-.03,4.77-2.14,4.77-4.78s-2.17-4.84-4.86-4.81c-2.66.03-4.77,2.14-4.77,4.78s2.17,4.84,4.86,4.81Z"/>
          <path class="cls-1" d="M384.85,241.86c-2.36,0-4.35,1.94-4.41,4.31-.06,2.38,1.94,4.44,4.36,4.48,2.4.04,4.45-1.97,4.47-4.37.02-2.39-2.01-4.42-4.42-4.42h0Z"/>
          <path class="cls-1" d="M384.91,280.39c-1.9-.04-3.55,1.57-3.57,3.47-.02,1.89,1.6,3.53,3.51,3.53s3.53-1.64,3.51-3.53c-.02-1.85-1.59-3.43-3.45-3.47Z"/>
          <path class="cls-1" d="M403.6,337.22c-1.81-.05-3.23,1.32-3.24,3.13,0,1.75,1.35,3.12,3.11,3.14,1.76.02,3.15-1.32,3.18-3.07s-1.3-3.15-3.05-3.2Z"/>
          <path class="cls-1" d="M403.53,317.9c-2,0-3.6,1.54-3.65,3.52-.06,2.03,1.53,3.69,3.56,3.72,2.05.04,3.69-1.55,3.71-3.58.03-2.04-1.58-3.66-3.62-3.67h0Z"/>
          <path class="cls-1" d="M394.28,289.53c-2.13,0-3.8,1.71-3.78,3.82.02,2.06,1.68,3.71,3.75,3.73,2.13.02,3.83-1.65,3.84-3.76,0-2.12-1.68-3.79-3.81-3.79Z"/>
          <path class="cls-1" d="M403.77,298.63c-2.31,0-4.12,1.78-4.11,4.08,0,2.3,1.82,4.09,4.12,4.07s4.09-1.83,4.05-4.14c-.03-2.24-1.81-4-4.06-4.01h0Z"/>
          <path class="cls-1" d="M403.69,279.38c-2.5.02-4.47,1.97-4.48,4.47-.02,2.56,1.96,4.55,4.52,4.55s4.55-1.97,4.54-4.53c0-2.55-2.01-4.51-4.58-4.49h0Z"/>
          <path class="cls-1" d="M403.73,270.01c2.74,0,4.96-2.19,4.97-4.91.02-2.73-2.17-4.95-4.9-4.98-2.8-.03-5.04,2.19-5.03,4.97,0,2.72,2.21,4.92,4.96,4.92Z"/>
          <path class="cls-1" d="M394.22,270.25c-2.3.04-4.16,1.93-4.17,4.22,0,2.34,1.92,4.25,4.27,4.23,2.35,0,4.25-1.94,4.23-4.28-.03-2.33-1.98-4.22-4.33-4.19h0v.02Z"/>
          <path class="cls-1" d="M384.63,338.43c-1.11,0-1.94.82-1.94,1.92s.79,1.86,1.84,1.9c1.11.04,1.97-.76,2-1.86.02-1.11-.8-1.95-1.9-1.96h0Z"/>
          <path class="cls-1" d="M419.07,190.4s-.16.06-.38.16c-.39-.02-.91.24-1.83.72-.25.13-.46.29-.7.48-.89.44-2.13,1.06-2.5,1.25-1.82.93-3.62,1.89-5.37,2.93-.08.05-.17.1-.25.16-.26.17-.52.35-.75.56-.31.26-.54.57-.64.88-.54,1.84-.22,3.73.72,5.25s2.49,2.67,4.39,3c.7.13,1.42.12,2.12.08.35-.02.7-.05,1.04-.07.33-.03.67-.05.98-.05-.12.98-.41,2.15-.35,3.29.06,1.12.47,2.22.73,3.31-.45-.16-.89-.28-1.32-.38-.14-.03-.27-.04-.39-.07-.29-.05-.57-.11-.85-.14h-.45c-.24,0-.48-.03-.71,0-.16,0-.31.05-.46.07-.21.03-.42.05-.62.09-.16.04-.3.1-.44.15-.19.06-.37.11-.55.19-.15.07-.28.16-.41.23-.17.09-.34.18-.5.28-.14.09-.26.21-.38.31-.15.13-.31.24-.44.37-.12.12-.23.26-.34.4s-.25.26-.36.42c0,.02-.02.03-.03.05s-.03.03-.04.04c-.09.13-.15.26-.23.39-.1.17-.21.32-.3.5-.06.12-.1.24-.15.35-.09.22-.19.42-.25.64-.03.09-.04.18-.06.26-.06.25-.13.48-.16.74-.15,1.15.03,2.31.5,3.38.05.12.1.23.16.33.07.14.14.27.22.4.16.26.32.52.51.75h0s.03.03.04.04c.19.23.39.43.61.63.07.06.14.12.21.18.19.16.37.29.57.42.06.04.13.09.19.13.26.16.53.29.81.41.06.02.12.04.18.07.23.09.46.17.71.24.09.02.18.05.27.07.25.06.5.1.75.12.05,0,.11.02.16.02.31.02.61.02.92,0,.08,0,.16-.02.24-.03.24-.02.47-.06.7-.11.09-.02.18-.04.27-.06.31-.08.6-.18.9-.29.88-.38,1.61-.89,2.21-1.54.59-.65,1.04-1.42,1.36-2.31.54-1.55.35-3.08-.23-4.69-.08-.24-.18-.47-.28-.71.78.46,1.55.75,2.29.92.5.11.98.17,1.47.18.72.02,1.41-.07,2.06-.2.09,1.91.17,3.74.26,5.57-1.57-.42-3.06-.45-4.41,0-.67.23-1.3.57-1.89,1.05s-1.13,1.09-1.61,1.84c-.18.27-.33.57-.46.87-.24.54-.38,1.12-.47,1.7-.05.38-.08.76-.07,1.15.04.96.29,1.92.75,2.77.16.28.33.56.53.82.29.37.58.7.89.99,1.38,1.31,2.96,1.85,4.74,1.75h.06c.53-.03,1.07-.13,1.64-.27.47-.12.95-.27,1.45-.47-.31.61-.52,1.2-.67,1.78-.03.12-.06.24-.09.35-.39,1.93.02,3.78,1.19,5.66h0c-.46-.22-.92-.4-1.35-.55h-.04c-.43-.15-.85-.25-1.26-.33h-.06c-.4-.08-.79-.12-1.16-.13h-.08c-.37,0-.73.02-1.07.07h-.09c-.34.06-.67.14-.98.25-.03,0-.06.02-.09.03-.31.12-.61.26-.9.43-.03.02-.07.04-.1.06-.28.18-.54.38-.8.61-.03.03-.06.05-.09.08-.25.24-.48.49-.7.77-.02.02-.04.04-.06.06,0,.02-.02.04-.04.06-.03.04-.05.07-.08.1-.05.07-.08.14-.12.21-.14.21-.27.41-.37.63-.04.08-.08.16-.12.25-.82,1.75-.83,3.78.15,5.53.09.15.18.28.27.43v.02c.19.28.4.56.62.8.02.02.03.04.04.06.03.03.06.05.08.08.24.25.49.48.76.69h.02c.27.2.55.37.84.53.05.03.09.05.14.08.29.14.58.25.88.35.06.02.12.04.18.05.31.09.61.16.93.2h.12c.31.04.61.05.93.04h.11c.31-.02.63-.06.94-.13.06,0,.12-.02.18-.04.31-.07.61-.17.92-.29.05-.02.1-.05.15-.07.31-.14.62-.29.92-.48.72-.46,1.3-1,1.74-1.6.44-.61.74-1.28.89-2.04.31-1.5.05-3.29-.79-5.39,2.14,1.35,4.34,1.68,6.82.84-.28.8-.44,1.58-.5,2.33v.1c-.08,1.31.18,2.59.75,3.9-.02,0-.04,0-.06-.02-.41-.14-.83-.25-1.22-.33-.14-.03-.27-.04-.4-.06-.28-.05-.55-.1-.82-.12h-1.15c-.17,0-.31.06-.47.09-.21.04-.41.06-.61.11-.16.04-.31.12-.46.18-.19.07-.37.13-.56.22-.15.08-.29.18-.43.26-.18.11-.35.2-.51.32-.14.11-.28.25-.4.36-.16.14-.32.26-.47.42-.13.14-.26.31-.37.47-.14.17-.29.32-.41.51v.02l-.02.02c-.07.1-.11.2-.17.29-.12.19-.24.37-.32.57-.02.04-.03.09-.05.14-.82,1.8-.73,3.89.29,5.61h0c.13.22.25.43.39.63.04.06.09.1.13.16,0,.02.02.04.04.06.05.06.11.12.16.18.07.09.15.18.23.25.08.09.17.18.25.25.08.08.15.16.23.23.09.08.17.15.26.23.08.07.16.14.24.2.09.07.18.13.27.2.08.06.16.12.25.17.09.06.18.11.28.16.08.05.17.1.25.14.09.05.19.09.29.13.09.04.17.08.26.11.1.04.2.07.29.1s.18.06.26.08c.1.03.2.05.3.07.09.02.18.04.27.06.1.02.21.03.31.04.09,0,.18.02.27.03h.59c.11,0,.22,0,.32-.02.09,0,.19,0,.28-.02.11,0,.23-.03.33-.05.09-.02.19-.03.28-.05.12-.02.24-.06.35-.09.09-.02.18-.04.28-.07.12-.03.25-.08.36-.12l.27-.09c.14-.05.28-.11.41-.16.08-.03.16-.06.24-.09.21-.09.41-.19.62-.28,0,0,.03,0,.04-.02-.2.4-.36.78-.51,1.17-.3.75-.48,1.47-.57,2.16s-.08,1.33.04,1.95c.18.93.58,1.8,1.22,2.63.84,1.07,1.77,1.82,2.8,2.27.34.15.69.26,1.05.35s.73.14,1.11.16c.76.04,1.56-.04,2.4-.25.42-.1.85-.24,1.28-.39-.84,1.84-.95,3.57-.46,5.27.17.57.39,1.14.69,1.7-.56-.15-1.08-.26-1.58-.35-.17-.03-.31-.04-.47-.06-.32-.05-.66-.1-.95-.12h-1.28c-.18,0-.32.05-.49.08-.22.03-.45.06-.66.12-.16.04-.31.11-.45.17-.19.07-.38.13-.56.22-.15.07-.28.17-.41.25-.17.1-.33.2-.48.31-.13.1-.25.23-.37.34-.14.14-.29.26-.42.41-.12.14-.22.29-.32.44-.1.14-.22.26-.31.41-.02.04-.04.08-.06.11-.02.02-.03.04-.05.07-.03.05-.04.1-.07.14-.14.25-.26.49-.36.74,0,.03-.03.07-.04.1-.59,1.49-.66,3.13-.03,4.63.33.78.78,1.45,1.31,2.02.03.03.04.06.07.09s.06.05.08.07c.22.23.45.43.69.62.03.02.05.04.08.05.23.17.46.31.71.45.06.03.12.07.18.1.27.14.54.25.82.35.05.02.1.03.15.05.26.08.51.15.77.2.06,0,.11.02.17.03.3.05.58.07.88.08h.2c.28,0,.54-.02.82-.06h.12c.3-.05.59-.12.89-.21.07-.02.14-.04.2-.07.3-.1.59-.22.87-.36.81-.41,1.49-.94,2.03-1.59.27-.32.5-.67.71-1.05s.37-.78.5-1.22c.13-.41.21-.81.25-1.22v-.11c.05-.64,0-1.27-.14-1.91-.05-.22-.1-.43-.17-.64-.13-.43-.29-.85-.48-1.28.03,0,.06.02.1.03.35.13.69.24,1,.33.21.07.39.12.59.17.12.03.26.08.36.1.23.06.43.1.63.14.07,0,.14.03.21.04.22.04.41.06.61.08h.14c.2.02.39.02.58,0h.1c.19,0,.37-.03.55-.06h.07c.19-.04.36-.08.54-.14h.04c.19-.06.36-.14.55-.23.12.49.23.99.34,1.48-.44,1.14-.31,2.17.34,4.64-.14-.03-.25-.04-.38-.06-1.48-.67-3.15-.59-4.65-.05-1.32.33-2.34,1.05-3.18,2.19-.15.18-.28.35-.39.54-1.48,2.35-1.32,5.43.39,7.6,1.04,1.32,2.39,2.3,4.04,2.41,1.57.1,3.19-.25,4.66-.39-.11.3-.2.62-.28.92-.03.11-.04.22-.07.32-.04.2-.09.39-.12.58-.02.14-.03.26-.05.4-.02.17-.04.32-.05.49v.86c0,.17.02.32.03.48,0,.12.02.24.03.34.02.18.06.34.09.51.02.1.03.19.05.28.04.19.1.35.15.53.02.07.04.15.07.22.06.19.14.36.22.54.02.05.04.11.07.16.09.19.19.36.29.54.02.03.04.07.06.11.12.19.24.35.36.52.02.02.03.04.05.06.14.18.29.33.44.49l.03.03c.17.16.33.3.52.44h.02c.19.14.38.26.6.37h0c.63.34,1.35.56,2.15.62.33,1.96.65,3.92.95,5.89h0c-.67.04-1.29.14-1.86.31h0c-.28.09-.55.19-.81.3-.02,0-.04.02-.05.03-.24.11-.47.24-.69.37-.04.02-.07.05-.11.08-.2.14-.38.27-.57.43-.06.05-.12.12-.18.18-.15.14-.3.28-.43.44-.09.11-.17.23-.26.34-.09.13-.19.25-.28.38-.17.26-.31.54-.45.84-1.15,2.5-.8,4.91,1.03,7.01.21.24.42.45.66.66.11.1.24.18.35.26.13.09.25.2.37.27.18.11.35.2.54.29.08.04.16.09.24.13.23.1.45.19.69.25.04,0,.08.03.12.04.27.08.54.14.81.18h.03c.86.13,1.74.06,2.6-.19.29,2.32.54,4.67.79,7h0s-.08-.05-.13-.07c-.1-.06-.22-.11-.35-.14-2.5-.68-4.7-.15-6.44,1.77s-2.1,4.19-1.04,6.55,2.99,3.53,6.13,3.7c.58-.21,1.66-.52,2.68-.99.05-.02.09-.07.14-.12.08,1.01.15,2.02.21,3.03-.33,1.17-.29,2.3.22,3.43.06,1.06.13,2.12.19,3.18-.06-.07-.11-.15-.18-.21-1.71-1.59-4.39-1.86-6.48-.76-2.15,1.14-3.31,3.4-2.99,5.88.29,2.27,2.02,4.25,4.28,4.77,1.81.42,3.46.04,5.02-1.04.15-.11.29-.22.39-.32s.21-.23.3-.34h0c.03.96.05,1.92.07,2.88-.99,1.71-.94,3.77.11,5.47,0,1.21.03,2.41.04,3.63-.38-.57-.88-1.05-1.45-1.43,0,0-.02-.02-.04-.03-.18-.12-.36-.24-.56-.33h-.02c-.2-.1-.4-.2-.61-.27h0c-.19-.07-.37-.13-.56-.18-.05,0-.11-.03-.16-.04-.15-.03-.29-.06-.43-.08-.06,0-.11-.02-.17-.02-.19-.02-.38-.03-.56-.03-2.95.06-5.38,2.5-5.36,5.44s2.49,5.36,5.44,5.35c.33,0,.65-.04.96-.1.09-.02.18-.03.27-.05.25-.06.48-.13.71-.22.12-.05.24-.1.35-.16.17-.08.32-.17.48-.26.14-.08.27-.18.38-.26.07-.06.14-.12.2-.17.28-.25.53-.51.75-.81,0,0,0-.02.02-.02.13-.18.25-.37.35-.57v4.5c-.59,1.46-.61,2.79-.03,4.2-.02,1.82-.04,3.64-.07,5.44h0c-.05-.15-.12-.27-.18-.41-.05-.12-.11-.24-.17-.35-.07-.13-.15-.25-.23-.36-.08-.11-.16-.22-.25-.32-.08-.1-.16-.2-.25-.28-.18-.18-.36-.33-.56-.48-.07-.05-.14-.08-.21-.13-.17-.1-.33-.2-.51-.27-.09-.04-.19-.08-.29-.11-.19-.07-.37-.12-.57-.17-.09-.02-.18-.04-.28-.06-.3-.05-.59-.09-.92-.09-2.79,0-5.01,2.22-4.99,4.99.02,2.71,2.23,4.9,4.97,4.9.31,0,.61-.03.91-.08.09-.02.18-.04.27-.06.2-.05.39-.1.58-.17.09-.03.18-.06.27-.1.24-.1.46-.22.67-.35.09-.06.17-.14.26-.2.12-.09.23-.18.33-.28.1-.1.2-.2.29-.3.08-.09.14-.18.21-.27.22-.29.4-.62.55-.98h0c-.14,4.95-.38,9.88-.81,14.93v-.27c0-.45-.19-1.04-.49-1.34-1.45-1.39-3.74-1.55-5.44-.48-1.72,1.08-2.52,3.18-1.94,5.11.61,2.04,1.69,2.72,4.26,2.72h1.3c.68,0,1.15-.11,1.49-.34h.31c9.9-25.17,14.46-51.01,14.46-79.67,0-57.79-22.34-109.61-58.58-149.2h.04l-.28-.09Z"/>
        </g>
      </g>
    </g>
  </g>
</svg>