<?xml version="1.0" encoding="UTF-8" standalone="no"?>
<!-- Created with Inkscape (http://www.inkscape.org/) -->

<svg
   version="1.1"
   id="svg2"
   width="629.67999"
   height="126.06667"
   viewBox="0 0 629.67999 126.06667"
   sodipodi:docname="mcdaniel-logo.eps"
   xmlns:inkscape="http://www.inkscape.org/namespaces/inkscape"
   xmlns:sodipodi="http://sodipodi.sourceforge.net/DTD/sodipodi-0.dtd"
   xmlns="http://www.w3.org/2000/svg"
   xmlns:svg="http://www.w3.org/2000/svg">
  <defs
     id="defs6" />
  <sodipodi:namedview
     id="namedview4"
     pagecolor="#ffffff"
     bordercolor="#000000"
     borderopacity="0.25"
     inkscape:showpageshadow="2"
     inkscape:pageopacity="0.0"
     inkscape:pagecheckerboard="0"
     inkscape:deskcolor="#d1d1d1" />
  <g
     id="g8"
     inkscape:groupmode="layer"
     inkscape:label="ink_ext_XXXXXX"
     transform="matrix(1.3333333,0,0,-1.3333333,0,126.06667)">
    <g
       id="g10"
       transform="scale(0.1)">
      <path
         d="M 1007.1,1.22656 740.273,152.188 c -3.773,2.136 -5.605,6.574 -4.429,10.75 l 156.082,553.91 c 0.644,2.3 2.148,4.265 4.191,5.504 l 367.223,221.761 c 7.29,4.399 16.21,-2.363 13.94,-10.57 L 1020.81,6.91016 c -1.63,-5.90235 -8.38,-8.69922 -13.71,-5.6836"
         style="fill:#a2bbc2;fill-opacity:1;fill-rule:nonzero;stroke:none"
         id="path12" />
      <path
         d="M 607.379,98.5703 338.004,247.922 c -3.82,2.113 -5.68,6.578 -4.5,10.781 l 108.559,386.52 c 1.64,5.847 8.316,8.632 13.625,5.687 l 134.625,-74.64 c 2.945,-1.629 6.539,-1.567 9.425,0.171 l 165.805,99.856 c 7.309,4.402 16.234,-2.406 13.922,-10.621 L 621.008,104.246 c -1.653,-5.8397 -8.317,-8.6171 -13.629,-5.6757"
         style="fill:#a2bbc2;fill-opacity:1;fill-rule:nonzero;stroke:none"
         id="path14" />
      <path
         d="M 270.875,399.93 4.78125,550.523 c -3.77344,2.133 -5.601563,6.575 -4.429687,10.743 L 79.1719,841.215 c 1.6523,5.875 8.3867,8.648 13.6992,5.64 L 358.965,696.262 c 3.773,-2.137 5.601,-6.574 4.43,-10.746 L 284.57,405.566 c -1.656,-5.878 -8.382,-8.644 -13.695,-5.636"
         style="fill:#a2bbc2;fill-opacity:1;fill-rule:nonzero;stroke:none"
         id="path16" />
      <path
         d="M 1848.32,236.855 V 552.824 L 1712.47,310.523 h -29.33 L 1546.72,552.824 V 236.855 h -51.79 V 645.5 h 54.66 L 1697.51,380.172 1846.02,645.5 h 54.09 V 236.855 h -51.79"
         style="fill:#223142;fill-opacity:1;fill-rule:nonzero;stroke:none"
         id="path18" />
      <path
         d="m 2022.12,387.645 c 0,21.109 3.65,41.07 10.95,59.875 7.27,18.785 17.63,35.175 31.08,49.214 13.42,13.981 29.42,25.129 48.06,33.379 18.59,8.231 39.42,12.356 62.44,12.356 29.92,0 55.72,-6.598 77.43,-19.852 21.67,-13.222 38.06,-30.988 49.18,-53.226 l -49.5,-15.551 c -7.66,14.203 -18.41,25.238 -32.22,33.094 -13.82,7.863 -29.17,11.793 -46.04,11.793 -13.82,0 -26.87,-2.778 -39.14,-8.336 -12.29,-5.559 -22.82,-13.332 -31.66,-23.297 -8.82,-9.996 -15.81,-21.707 -21,-35.125 -5.2,-13.418 -7.78,-28.184 -7.78,-44.324 0,-15.723 2.69,-30.489 8.06,-44.301 5.36,-13.817 12.57,-25.832 21.59,-35.992 9,-10.164 19.56,-18.106 31.66,-23.864 12.08,-5.758 25.01,-8.648 38.86,-8.648 8.81,0 17.54,1.234 26.16,3.734 8.65,2.5 16.51,5.867 23.61,10.078 7.1,4.211 13.33,9.121 18.7,14.684 5.36,5.559 9.2,11.594 11.51,18.137 l 49.49,-14.961 c -4.6,-11.149 -11.03,-21.309 -19.26,-30.52 -8.25,-9.207 -17.94,-17.07 -29.08,-23.582 -11.12,-6.539 -23.5,-11.734 -37.11,-15.555 -13.62,-3.816 -27.91,-5.753 -42.87,-5.753 -22.66,0 -43.38,4.242 -62.19,12.66 -18.78,8.453 -34.92,19.765 -48.34,33.968 -13.42,14.18 -23.89,30.774 -31.36,49.778 -7.49,19.008 -11.23,39.051 -11.23,60.137"
         style="fill:#223142;fill-opacity:1;fill-rule:nonzero;stroke:none"
         id="path20" />
      <path
         d="m 2713.38,441.77 c 0,23.015 -3.17,44.214 -9.52,63.582 -6.32,19.371 -15.72,35.964 -28.19,49.777 -12.49,13.84 -27.73,24.68 -45.75,32.539 -18.05,7.855 -38.58,11.785 -61.6,11.785 h -89.77 V 282.898 h 89.77 c 23.42,0 44.22,4.043 62.47,12.098 18.21,8.059 33.38,19.176 45.45,33.379 12.1,14.18 21.3,30.969 27.62,50.367 6.35,19.371 9.52,40.371 9.52,63.028 z M 2426.75,236.855 V 645.5 h 141.57 c 32.62,0 61.31,-5.367 86.05,-16.117 24.76,-10.754 45.37,-25.324 61.87,-43.738 16.51,-18.418 28.86,-40.004 37.12,-64.739 8.25,-24.761 12.38,-51.148 12.38,-79.136 0,-31.079 -4.61,-59.211 -13.82,-84.336 -9.2,-25.125 -22.43,-46.629 -39.69,-64.457 -17.29,-17.852 -38.1,-31.668 -62.46,-41.438 -24.37,-9.793 -51.52,-14.684 -81.45,-14.684 h -141.57"
         style="fill:#223142;fill-opacity:1;fill-rule:nonzero;stroke:none"
         id="path22" />
      <path
         d="M 3101.86,396.848 3028.2,585.645 2952.23,396.848 Z M 3006.33,645.5 h 43.73 l 166.93,-408.645 h -55.25 l -48.37,119.708 h -171.5 l -47.78,-119.708 h -55.25 L 3006.33,645.5"
         style="fill:#223142;fill-opacity:1;fill-rule:nonzero;stroke:none"
         id="path24" />
      <path
         d="M 3381,548.809 V 236.855 h -51.79 V 645.5 h 40.28 l 253.25,-318.273 v 317.711 h 51.8 V 236.855 H 3630.8 L 3381,548.809"
         style="fill:#223142;fill-opacity:1;fill-rule:nonzero;stroke:none"
         id="path26" />
      <path
         d="M 3829.93,236.855 V 645.5 h 51.79 V 236.855 h -51.79"
         style="fill:#223142;fill-opacity:1;fill-rule:nonzero;stroke:none"
         id="path28" />
      <path
         d="M 4314.53,282.898 V 236.855 H 4037.11 V 645.5 h 272.23 V 599.453 H 4088.9 V 467.094 h 191.66 v -43.18 H 4088.9 V 282.898 h 225.63"
         style="fill:#223142;fill-opacity:1;fill-rule:nonzero;stroke:none"
         id="path30" />
      <path
         d="M 4442.86,236.855 V 645.5 h 51.79 V 282.898 h 227.93 v -46.043 h -279.72"
         style="fill:#223142;fill-opacity:1;fill-rule:nonzero;stroke:none"
         id="path32" />
    </g>
  </g>
</svg>
