<?xml version="1.0" encoding="UTF-8"?>
<svg id="Layer_1" xmlns="http://www.w3.org/2000/svg" version="1.1" viewBox="0 0 360 212.9">
  <!-- Generator: Adobe Illustrator 29.2.0, SVG Export Plug-In . SVG Version: 2.1.0 Build 108)  -->
  <defs>
    <style>
      .st0 {
        fill: #231f20;
      }

      .st1 {
        fill: #f5a800;
      }

      .st2 {
        fill: #b2292e;
      }
    </style>
  </defs>
  <g>
    <path class="st0" d="M204.4,26.4c3.1-3.1,7.5-4.7,13.2-4.7s10.3,1.5,13.4,4.4c3.1,2.9,4.6,7,4.6,12.2,0,11.6-8.6,17.3-25.9,17.3h-5.3v21h5.3c9.7,0,16.9,1.6,21.6,4.7,4.6,3.2,6.9,8.4,6.9,15.7s-1.3,8.7-3.8,12h27.1c.7-3.1,1.1-6.4,1.1-9.8,0-8.8-2-15.9-5.9-21.5-4-5.6-9.5-9.5-16.5-11.7v-.7c5.5-1.8,10.2-5.4,14.2-10.7,4-5.3,5.9-11.8,5.9-19.5s-1.6-12.7-4.8-18c-3.2-5.3-8-9.5-14.3-12.6-6.3-3.1-13.9-4.7-22.8-4.7-13,0-23.5,3.3-31.5,10-8,6.6-12.3,16-12.9,28.2h25c.5-4.8,2.3-8.7,5.4-11.8Z"/>
    <path class="st0" d="M201.9,109.2c-3.1-3.4-4.7-7.8-4.9-13.1h-24.8c.2,4.8.9,9.1,2.1,13.1h27.7Z"/>
  </g>
  <g>
    <path class="st0" d="M95.7,148.3v10.9h-2.2v-4.7h-4.7v4.7h-2.2v-10.9h2.2v4.5h4.7v-4.5h2.2Z"/>
    <path class="st0" d="M104,158.6c-.9-.5-1.5-1.1-2-2s-.8-1.8-.8-2.9.3-2,.8-2.9,1.2-1.5,2-2c.9-.5,1.8-.7,2.8-.7s2,.2,2.8.7c.9.5,1.5,1.1,2,2,.5.9.7,1.8.7,2.9s-.2,2-.7,2.9c-.5.9-1.2,1.5-2,2-.9.5-1.8.7-2.8.7s-2-.2-2.8-.7ZM108.6,156.9c.5-.3.9-.7,1.2-1.3.3-.6.4-1.2.4-1.9s-.1-1.4-.4-1.9c-.3-.5-.7-1-1.2-1.3-.5-.3-1.1-.4-1.7-.4s-1.2.1-1.7.4c-.5.3-.9.7-1.2,1.3-.3.5-.4,1.2-.4,1.9s.1,1.4.4,1.9c.3.6.7,1,1.2,1.3s1.1.4,1.7.4,1.2-.1,1.7-.4Z"/>
    <path class="st0" d="M129.9,148.3v10.9h-2.2v-7.1l-2.9,7.1h-1.7l-2.9-7.1v7.1h-2.2v-10.9h2.5l3.5,8.1,3.5-8.1h2.5Z"/>
    <path class="st0" d="M138.2,150v2.7h3.7v1.7h-3.7v2.9h4.2v1.8h-6.3v-10.9h6.3v1.8h-4.2Z"/>
    <path class="st0" d="M149.9,158.9c-.6-.3-1.1-.6-1.4-1.1-.4-.5-.5-1.1-.5-1.7h2.3c0,.4.2.8.5,1.1s.7.4,1.2.4.9-.1,1.2-.4c.3-.2.4-.6.4-1s0-.6-.3-.8-.4-.4-.7-.5-.7-.3-1.2-.4c-.7-.2-1.3-.4-1.7-.6-.4-.2-.8-.5-1.1-.9-.3-.4-.5-1-.5-1.7s.2-1.2.5-1.7c.3-.5.8-.8,1.4-1.1.6-.3,1.3-.4,2-.4,1.1,0,2,.3,2.7.8.7.5,1.1,1.3,1.2,2.3h-2.4c0-.4-.2-.7-.5-.9-.3-.2-.7-.4-1.2-.4s-.8.1-1,.3c-.3.2-.4.5-.4,1s0,.5.3.7c.2.2.4.4.7.5s.7.3,1.2.4c.7.2,1.3.4,1.7.6.4.2.8.5,1.2.9.3.4.5,1,.5,1.6s-.2,1.1-.5,1.6c-.3.5-.7.9-1.3,1.2-.6.3-1.3.4-2.1.4s-1.4-.1-2.1-.4Z"/>
    <path class="st0" d="M171.5,157.5h3.6v1.7h-5.8v-10.9h2.2v9.2Z"/>
    <path class="st0" d="M187.9,148.3v1.8h-2.9v9.2h-2.2v-9.2h-2.9v-1.8h8Z"/>
    <path class="st0" d="M200.2,149c.9.4,1.5,1.1,2,1.9.5.8.7,1.8.7,2.9s-.2,2.1-.7,2.9c-.5.8-1.1,1.5-2,1.9-.9.4-1.9.7-3,.7h-3.8v-10.9h3.8c1.1,0,2.2.2,3,.7ZM199.8,156.4c.6-.6.9-1.5.9-2.6s-.3-2-.9-2.7c-.6-.6-1.5-1-2.7-1h-1.6v7.2h1.6c1.1,0,2-.3,2.7-.9Z"/>
    <path class="st0" d="M208.5,159c-.3-.2-.4-.6-.4-.9s.1-.7.4-.9c.3-.2.6-.4,1-.4s.7.1,1,.4c.2.2.4.6.4.9s-.1.7-.4.9c-.3.2-.6.4-1,.4s-.7-.1-1-.4Z"/>
  </g>
  <g>
    <path class="st2" d="M82.2,173.8v9.5h-1.9v-6.2l-2.5,6.2h-1.4l-2.6-6.2v6.2h-1.9v-9.5h2.2l3,7,3-7h2.1Z"/>
    <path class="st2" d="M93.3,181.5h-3.8l-.6,1.8h-2l3.4-9.5h2.2l3.4,9.5h-2l-.6-1.8ZM92.8,179.9l-1.4-4-1.4,4h2.7Z"/>
    <path class="st2" d="M102.1,183c-.5-.2-.9-.6-1.3-1-.3-.4-.5-.9-.5-1.5h2c0,.4.2.7.4.9.2.2.6.3,1,.3s.8-.1,1-.3c.3-.2.4-.5.4-.8s0-.5-.3-.7-.4-.3-.6-.4-.6-.2-1.1-.3c-.6-.2-1.1-.4-1.5-.5-.4-.2-.7-.4-1-.8-.3-.4-.4-.8-.4-1.4s.1-1.1.4-1.5.7-.7,1.2-1c.5-.2,1.1-.3,1.7-.3,1,0,1.8.2,2.4.7.6.5.9,1.1,1,2h-2.1c0-.3-.2-.6-.4-.8-.3-.2-.6-.3-1-.3s-.7,0-.9.3-.3.5-.3.8,0,.5.3.6c.2.2.4.3.6.4.2.1.6.2,1.1.4.6.2,1.1.4,1.5.5.4.2.7.5,1,.8.3.4.4.8.4,1.4s-.1,1-.4,1.4c-.3.4-.6.8-1.2,1-.5.3-1.1.4-1.8.4s-1.3-.1-1.8-.3Z"/>
    <path class="st2" d="M118.7,173.8v1.5h-2.5v7.9h-1.9v-7.9h-2.5v-1.5h6.9Z"/>
    <path class="st2" d="M125.4,175.3v2.4h3.2v1.5h-3.2v2.5h3.6v1.5h-5.5v-9.5h5.5v1.5h-3.6Z"/>
    <path class="st2" d="M139,183.3l-2.1-3.7h-.9v3.7h-1.9v-9.5h3.6c.7,0,1.4.1,1.9.4.5.3.9.6,1.2,1,.3.4.4.9.4,1.5s-.2,1.2-.5,1.7c-.4.5-.9.8-1.6,1l2.3,3.8h-2.2ZM136,178.2h1.6c.5,0,.9-.1,1.2-.4.3-.2.4-.6.4-1s-.1-.8-.4-1c-.3-.2-.6-.4-1.2-.4h-1.6v2.8Z"/>
    <path class="st2" d="M159.5,179.2c.3.4.5.9.5,1.5s-.1,1-.4,1.3c-.2.4-.6.7-1.1.9s-1,.3-1.7.3h-4.1v-9.5h3.9c.6,0,1.2.1,1.7.3s.8.5,1.1.9.4.8.4,1.3-.1,1-.4,1.4-.7.6-1.2.8c.5,0,1,.4,1.3.8ZM154.7,177.7h1.7c.5,0,.8-.1,1-.3.2-.2.4-.5.4-.9s-.1-.7-.4-.9c-.2-.2-.6-.3-1-.3h-1.7v2.4ZM157.7,181.4c.3-.2.4-.5.4-.9s-.1-.7-.4-1c-.3-.2-.6-.3-1.1-.3h-1.9v2.6h1.9c.5,0,.8-.1,1.1-.3Z"/>
    <path class="st2" d="M166.8,173.8v5.9c0,.6.2,1.1.5,1.5.3.3.8.5,1.4.5s1.1-.2,1.4-.5c.3-.3.5-.8.5-1.5v-5.9h1.9v5.9c0,.8-.2,1.5-.5,2s-.8,1-1.4,1.3c-.6.3-1.2.4-1.9.4s-1.3-.1-1.9-.4c-.6-.3-1-.7-1.4-1.3-.3-.6-.5-1.2-.5-2v-5.9h1.9Z"/>
    <path class="st2" d="M179.7,173.8v9.5h-1.9v-9.5h1.9Z"/>
    <path class="st2" d="M186.9,181.8h3.1v1.5h-5v-9.5h1.9v8Z"/>
    <path class="st2" d="M200.5,174.4c.8.4,1.3.9,1.8,1.7.4.7.6,1.6.6,2.5s-.2,1.8-.6,2.5c-.4.7-1,1.3-1.8,1.6-.8.4-1.6.6-2.6.6h-3.3v-9.5h3.3c1,0,1.9.2,2.6.6ZM200.2,180.8c.5-.5.8-1.3.8-2.3s-.3-1.8-.8-2.3c-.5-.6-1.3-.8-2.3-.8h-1.3v6.3h1.3c1,0,1.8-.3,2.3-.8Z"/>
    <path class="st2" d="M209.6,175.3v2.4h3.2v1.5h-3.2v2.5h3.6v1.5h-5.5v-9.5h5.5v1.5h-3.6Z"/>
    <path class="st2" d="M223.2,183.3l-2.1-3.7h-.9v3.7h-1.9v-9.5h3.6c.7,0,1.4.1,1.9.4.5.3.9.6,1.2,1,.3.4.4.9.4,1.5s-.2,1.2-.5,1.7c-.4.5-.9.8-1.6,1l2.3,3.8h-2.2ZM220.2,178.2h1.6c.5,0,.9-.1,1.2-.4.3-.2.4-.6.4-1s-.1-.8-.4-1c-.3-.2-.6-.4-1.2-.4h-1.6v2.8Z"/>
  </g>
  <g>
    <g>
      <rect class="st0" x="43.8" y="177.5" width="20.7" height=".7"/>
      <rect class="st0" x="43.2" y="176.9" width="21.9" height="1.9"/>
    </g>
    <g>
      <rect class="st0" x="232.6" y="177.5" width="20.7" height=".7"/>
      <rect class="st0" x="232" y="176.9" width="21.9" height="1.9"/>
    </g>
  </g>
  <g>
    <path class="st0" d="M48.9,124.1c1.1.2,2.2.3,3,.3,1.5,0,4-1.6,5.1-3.3,1-1.5,1.2-3.4,1.2-5.2,0-6.8-4.9-8.2-6.9-8.2s-1.4,0-2.3.2v16.2ZM48.9,127.8c0,2.3,0,9,0,9.6,0,1.1.6,1.6,1.4,1.6h2.5c.3,0,.4.1.4.3v1.3c0,.2,0,.4-.4.4-.7,0-2.2-.1-8-.1s-6.3.1-6.8.1-.4-.1-.4-.3v-1.3c0-.2,0-.3.3-.3h1.3c1.7,0,2-.2,2.2-1.5,0-.5.2-8.2.2-13.9v-5.7c0-3.3,0-8.4,0-9,0-1-.6-1.1-1.6-1.1h-2.3c-.2,0-.3,0-.3-.4v-1.3c0-.2,0-.3.3-.3.5,0,2.3.1,7.5.1s3.8-.1,5.4-.1c6.1,0,9,.5,11.8,2.7,2.1,1.6,3.6,4.4,3.6,7.6,0,5.9-4.7,10-13,10s-2.7,0-4-.1v1.8Z"/>
    <path class="st0" d="M76.6,137.1c0,1.5.5,2,1.5,2h2c.3,0,.3.1.3.4v1c0,.3,0,.4-.2.4-.3,0-2.6-.1-7-.1s-5.9.1-6.2.1-.3,0-.3-.5v-.9c0-.3,0-.4.5-.4h1.4c.7,0,1.2-.3,1.3-1.2.1-1.4.1-3.1.1-5.6v-4.1c0-2.1-.5-3-2-3.8l-.8-.5c-.3-.1-.4-.2-.4-.4v-.4c0-.2.1-.3.4-.4l6.9-3c.3,0,.5-.2.8-.2s.5.3.6.6l.4,3.8h.3c1.5-3.3,3.7-4.7,5.9-4.7s2.6,1.1,2.6,2.9-1.5,2.8-3.2,2.8-1.3-.1-1.8-.4c-.4-.2-.8-.3-1.2-.3s-1,.2-1.3.9c-.6,1.3-.8,2.3-.8,2.9v9.3Z"/>
    <path class="st0" d="M100.9,130.1c0-5.7-2-8.5-4.1-8.5s-2,.3-2.7,1.3c-1,1.5-1.6,3.6-1.6,7.6s.2,4.7,1.2,6.9c.6,1.3,1.4,2.1,3.3,2.1,2.7,0,3.9-4,3.9-9.4M88.1,138c-1.9-2.1-2.6-4.7-2.6-7.8s1.2-5.9,4.2-8.2c2.5-2,5-2.5,7.3-2.5,3.4,0,5.7,1,7.9,3.1,2.4,2.2,3.4,4.8,3.4,7.8s-1.2,5.6-3.2,7.7c-2.4,2.5-5.2,3.5-8.6,3.5s-6.1-.7-8.6-3.6"/>
    <path class="st0" d="M117.6,119.8c.4-.2.8-.3,1.1-.3s.6.1.7.6l.4,2.8h.2c1.4-1.9,3.9-3.5,7-3.5s4.7,1.4,6,3.5h.2c1.7-2,4.1-3.3,6.6-3.3s3.3.3,4.8,1.9c1.4,1.4,2.1,1.9,2.1,6.8v3.5c0,1.7-.1,4.4-.2,5.4,0,1.4.6,1.9,1.4,1.9h1c.4,0,.5,0,.5.4v.9c0,.3-.1.5-.3.5s-1.7-.1-5.3-.1-4.7.1-5.1.1-.4-.1-.4-.6v-.8c0-.3.1-.4.3-.4h.4c.3,0,.9-.2,1-.9,0-1.1.2-2.9.2-4.7v-4.7c0-3.1-.1-4.1-.8-4.8-.8-.9-1.3-1.2-2.4-1.2s-2.4,1-3,1.6c-.7.8-.7,2.4-.7,3.1v9.8c0,1.4.3,1.9.8,1.9h.9c.4,0,.5,0,.5.4v.9c0,.4,0,.5-.3.5s-1.6-.1-4.6-.1-5.3.1-5.6.1-.3-.1-.3-.5v-.9c0-.4,0-.5.5-.5h.7c.7,0,1.2-.6,1.2-3.5v-7.3c0-3.4-.5-4.5-1.1-5.1-.4-.4-1.2-.6-2.3-.6s-2.1.7-2.7,1.5c-.6,1-.8,2.1-.8,4v7.9c0,2.5.5,3,1,3h.4c.4,0,.5,0,.5.4v.9c0,.3,0,.5-.4.5s-1.8-.1-5.3-.1-4.9.1-5.3.1-.4,0-.4-.4v-1c0-.4,0-.4.6-.4h1.4c.5,0,.9-.5.9-1.2,0-.8,0-2.1,0-3.4v-6.2c0-2.2-.3-3-1.6-3.7l-1-.6c-.2-.1-.3-.2-.3-.4v-.6c0-.1,0-.3.3-.4l6.4-2.8Z"/>
    <path class="st0" d="M157,115.6c-2,0-3.5-1.3-3.5-3.2s1.6-3,3.7-3,3.5,1.5,3.5,2.9-1.1,3.3-3.7,3.4M163.8,141c-.4,0-2.7-.1-6.9-.1s-4.8.1-5.3.1-.4,0-.4-.5v-1c0-.3.1-.4.5-.4h1.8c.5,0,.9-.2.9-1,0-1.5,0-3,0-4.4v-6.9c0-1.4-.4-2.4-2.5-3.1-.5-.2-.6-.4-.6-.7v-.5c0-.1.1-.2.5-.4l7.3-2.4c.5-.2,1-.3,1.3-.3s.5.2.5.6c0,.8,0,3.9,0,8.3v5.3c0,1.9,0,3.7,0,4.2,0,.9.3,1.3.9,1.3h1.8c.4,0,.5.1.5.4v.9c0,.3-.1.5-.4.5"/>
    <path class="st0" d="M175.1,122.2h.4c.5-.6,1.4-1.3,2.4-1.8,1.1-.6,2.2-.9,3.8-.9s3.8.2,5.1,1.4c2.1,1.9,2.2,3.2,2.2,5.6v5.2c0,1.7-.1,4-.2,5.7,0,1.5.7,1.7,1.2,1.7h1.3c.4,0,.5.1.5.4v.9c0,.3,0,.5-.4.5s-1.9-.1-5.8-.1-4.8.1-5.2.1-.4-.1-.4-.5v-.9c0-.3.1-.4.6-.4h.5c.3,0,.8-.2.9-1.1.2-1.3.3-2.9.3-5.1v-5.3c0-1.9-.1-3.2-1.2-4.1-.9-.8-1.6-.9-2.4-.9s-1.5.2-2.5,1c-.6.4-1,1.8-1,3.8v10.1c0,.9.2,1.6.7,1.6h.6c.4,0,.5.1.5.5v.9c0,.3,0,.4-.3.4s-1.7-.1-4.9-.1-5.1.1-5.4.1-.3-.1-.3-.4v-1c0-.3,0-.4.5-.4h.7c.5,0,1.4-.1,1.4-1v-10.9c0-1.5-.8-2.3-2-2.9l-.4-.2c-.3-.1-.3-.3-.3-.5v-.4c0-.2.2-.4.4-.5l6.3-2.9c.4-.1.7-.3,1.1-.3s.6.2.7.6l.5,2.1Z"/>
    <path class="st0" d="M205.3,126.7c1.1,0,1.6-.2,1.6-1,0-2.2-.9-4.3-2.4-4.3-2.3,0-3.6,1.8-3.9,5.3h4.7ZM200.5,128.6v1.3c0,5.1,2.9,7.6,6.5,7.6s4.4-1.1,5.4-2.7c0-.2.3-.3.5-.1l.8.4c.2,0,.3.3,0,1.2-.9,1.8-4.1,5.2-8.7,5.2s-5.8-.5-7.4-2.3c-2.5-2.7-3.3-4.6-3.4-8.5,0-1.4,0-4,2.2-7.2,1.8-2.6,4.8-4,8.6-4,8,0,8.4,7.6,8.4,8.4s-.4.7-1.5.7h-11.3Z"/>
    <path class="st0" d="M225.2,122.2h.4c.5-.6,1.4-1.3,2.4-1.8,1.1-.6,2.2-.9,3.8-.9s3.8.2,5.1,1.4c2.1,1.9,2.2,3.2,2.2,5.6v5.2c0,1.7-.1,4-.2,5.7,0,1.5.7,1.7,1.2,1.7h1.3c.4,0,.5.1.5.4v.9c0,.3-.1.5-.4.5s-1.9-.1-5.8-.1-4.8.1-5.2.1-.4-.1-.4-.5v-.9c0-.3.1-.4.6-.4h.5c.3,0,.8-.2.9-1.1.2-1.3.3-2.9.3-5.1v-5.3c0-1.9-.2-3.2-1.2-4.1-.9-.8-1.6-.9-2.4-.9s-1.5.2-2.5,1c-.6.4-1,1.8-1,3.8v10.1c0,.9.2,1.6.7,1.6h.6c.4,0,.5.1.5.5v.9c0,.3,0,.4-.3.4s-1.7-.1-4.9-.1-5.1.1-5.4.1-.3-.1-.3-.4v-1c0-.3,0-.4.5-.4h.7c.5,0,1.4-.1,1.4-1v-10.9c0-1.5-.8-2.3-2-2.9l-.4-.2c-.3-.1-.3-.3-.3-.5v-.4c0-.2.2-.4.4-.5l6.3-2.9c.4-.1.7-.3,1.1-.3s.6.2.7.6l.5,2.1Z"/>
    <path class="st0" d="M253,133.7c0,4,1.5,4.9,2.7,4.9s1.8-.1,2.6-.6c.1,0,.3,0,.4.2l.3.7c.1.2,0,.5-.2.6-.8.6-3.1,2-6.9,2s-5.5-2.3-5.5-4.6,0-5.5,0-7.3v-6.5s-2.7,0-2.7,0c-.4,0-.8-.2-.8-.7s.3-.8,1.1-1.2c1.6-.7,5.8-4.4,7.6-6.5.3-.4.7-.5.9-.5.4,0,.6.3.6.7l-.2,5.2h6.3c.3,0,.4.2.3.4l-.5,2.1c0,.2-.1.4-.4.4h-5.8c0,2,0,4.4,0,6.7v3.9Z"/>
  </g>
  <polygon class="st1" points="297.1 212.9 0 212.9 0 71.1 107.6 71.1 107.6 76 4.9 76 4.9 208.1 292.2 208.1 292.2 168.3 297.1 168.3 297.1 212.9"/>
  <path class="st2" d="M148.3,86.4c-4.1-1.5-2,1.9-2,4.1,0,.4,0,.9,0,1.3-.4.9-.4,1.9-.9,2.9-2.6,3.3,3.7,3,4.2-.5.1-.7.1-1.5.1-2.1-.2-1.7,0-4.8-1.5-5.8ZM160.9,88.8c-.1-1.6.1-4.1-1.4-5.1-4.4-1.9-1.5,3.8-2.1,5.9-.1,1.8-2.7,4.1-.4,4.8.5,0,1.1,0,1.7,0,2-1.1,2.8-3.5,2.2-5.6ZM171.7,82.4c-.5-1.6-1.8-1.7-3.2-1.7-.5.4,0,6.3,0,7.2-.6,1.5-2.8,3.4,0,3.9,5.2,0,3.4-6.1,3.3-9.4ZM151.7,83.6c-.5-.2-1.8-1.6-.4-1.2,1.2,0,1.3.4.4,1.2M160.5,77.9c-.7,0-1.3,0-2,0-1.7,0,2.5,3,2.7,3.4.2.3,1.1,1.2.7,1.6-1.4.2-8-.7-8.5-2.1-.3,0-2.6-3.7-3.1-4.2-.2-.7,4.1-3.1,4.7-3.7,0-1.1,5.7-4,6.7-4.7,0-.9-.4-.8-1-1.3-5.8-.3,5.3-4.9.2-5.4-.5-.3-2.8.2-1.9-1.1.4-.5,2.2-4.4,3.2-3.5.8,2.8,5.1-2.4,6.9-1,0,1-1.8,3-1,3.7.7,0,3.5.2,2,1.1-.8.8-3.6,3.3-2.6,4,3.5,1-.4,2.3-1.9,3.5-1.2.5-2.4,2.8-3.9,3-1.1,1.1-5.3,2.2-2.4,3.4,1.3.3,1.4.6,2.3,1.5.7,1.5,1.6,1.6-.9,1.8M163,80.6c-1.5-1.3,1.5-1.6.2,0,0,0,0,0-.2,0M173.1,75.1h-3.2c-2.4,0,2.5,3.1,2.6,3.7.2.2,1,1.2,1,1.4-1.6,0-8.2-.8-8.8-2-1.3-.7-2-3.4-3.3-4.3-.5-.5,3-2.3,3.4-2.8,1.1-1.9,4.4-3.6,6.1-4.7.6,0,3-1.6,1.7-1.9-1.8-1.4-3.8,0-1.4-2.7.5-.3,3.2-2.9,1.8-3-1-.4-4.2.3-2.5-2,0-.6,2.5-3.6,2.8-2.5,1.4,2.3,5.3-2.8,6.8-1.2-.3,2.3-3,3.9.8,4,2.3,1-4.8,3.7-2,5.1,3.3,0-1.4,2.7-2.2,3-1.6,1.6-4.1,4-6.4,4.6-.3.5-2.6,1.5-.5,1.8.7.7,2.2.2,2.4,1.4.3.3,1.6,1.8,1,2.1M174.2,77.8c-1.6-.5,1.3-2,.4-.2-.1,0-.3.1-.4.2M192.4,54.6v.2c-.5.5-2.2,3-2.7,3-.4,2.1.6.9,1.7,1.9.3.9-3.6,2.2-4,3.1-2,2-4.7,2.9-6.6,4.7-2.1.7,2.8,1.8,2.8,2.7,2.5,2.5-1.4,1.6-2.9,2.1-.7.5,3.2,3.1,3.3,4,1.2,1.2-4,.4-4.7,0-4.4,1.1-4.3-5.2-6.5-5.2-1-1,1.1-1.5,1.7-2,1.1,0,2.2-1.8,3-2.3,1.4-1.7,4-2.6,5.7-3.8,2.3-1.1,0-1.9-1.6-2-.9-.6,2.8-4.1,3.4-4.6.5-1.6-4.7.7-3.4-1.6.2-1.6,1.2-2.9,2.5-3.7.3,0,.5.6.7.8,2.5.2,3.8-1.9,6.5-1.9.2.2-.4,1.4-.4,1.7-2,2.9.3,1.5,1.6,2.7M146.8,60.2c-1.6-1.1-2.2-2-4.5-2-1.7-.3.2-2.4-.4-3.5,0-2.3-6.7,4.1-5.7-.5.7-.7,1.4.3,1.5-1.1,1.1-1.7-.6-5.8,3.2-3.2,2,0,2.9-1.4,3.1,1.1.5,1.5.7,4.9,3.2,3.9.9,0,5.2-2.7,4,.1,0,.9-3.5,5.1-4.3,5.1M152.5,58.4c-2.1-2.1,2.2-2,.4-.1-.1,0-.2,0-.4.1M157.3,56.6c-1.1-.2-1.9-1.1-3.3-1.3-2.5-.6,1.5-5.2-3.4-3.2-1.1,0-3.1,2.2-3.3.1.8-1.4,1.6-1.1,1.9-3.1.9-2-.4-3.3,2.2-2.4,1.5,2,3.5-1.6,3.8,1.1.4.7,0,1.4.6,2.1,1.4.2.7.9,1.3,1.7,0,1.5,5-.9,5.4-.5-.4,3.2-2.1,5.1-5.2,5.4M164.1,55.7c-2.5-1.7,2.1-2.6.3-.1,0,0-.2,0-.3.1M168.7,53.8c-.8-.4-1.5-1.3-2.5-1.6-3,0-1.5-.8-1.5-2.9-1.4-1.9-5,1.9-6.1.8,0-.9-.1-1.1.5-1.7,2.1,0,.8-7,3.5-4.4,2.9,1.1,4-1.6,4,2.6,1,1.2,1.4.5,1.5,2.5,1.1,1.1,6.8-2.1,5.6.3-.2,2.4-2.8,3.8-5,4.4M175,52.8c-.4-.5-.5-.7-.4-1.4,1.4-1.2,1.9.8.4,1.4M158,64c-1,1.5-3.7,2.9-1.5,4,2.4,0-.5,1.7-.9,2-1.8,1-3.7,3.8-5.5,4-1,.8-5.4,2.7-2.1,3.5.4.4,1.6,0,1.6,1,.6.5,1.5,1.6.6,2.1-.2,0-1.1-.1-1.3,0-1.8,0-3-.1-1.6,1.2,0,1,3.9,2.2,3,3.6-2.8,0-5.6-.9-8.3-.6-.6.5-1.8,1.4-2,2.2-.8.8-2.4-.8-2.9-.2-.3,0-.6-.1-.9-.2-.2-1.4-.4-2.7-.5-4.1-1.7-4.7.5-2.9,2.4-5.4,1.4-.6,1.9,1.5,3.3,1.5.3.3.2,1.9-.2,2.1-1.3,1.9-.7,3,.9,1,1.3,0,3,1.6,2-.8.4-1.1,1.7-1.2-.3-1.5-1,0-2.9-2.1-3.6-2.9-.8-1.3,4.6-4.8,5.7-5.4,1.3,0,2.7-.2,3.9-.5.5-.8-1.3-.8-1.7-.8-1.2-1.2,4.3-2.4,4.3-2.4,1.2-.2.6-1-.3-1.1-.2-.2,2-4,.3-2.8-1.5.2-1.2,2-2.5.4-.9,0-.4,3.5-2.3,3.5-2.3,2.3-1-2.7-1.6-3.1-1.3-.2-1.3,3.1-1.3,3.9.8,2.4-2.2,3.6-4,4.2-.9,1.8-3.9,4.5-6,4.5-.9-.9-.2-2.7-.8-3.6,0-1.6,1.6-1.4,0-2.5-.4-.1-.8-1.5-1-2-1.3-1.7,2.4-4.8,3.7-5.4,4.1-.4-.9-4.4-.9-1.3-.4.4-1.4,2.3-2,2.3-2.9,2.9-3-2.8-3-4.5,1.6-1.6-.8-1.1-.8-2.7-1.6-3.7-1,3.4-.2,4.2.3,2.1.4,5.9-2.4,3.6-.2-.7-5-1.6-5.9-1.6-.4.4,1,.8,1.2.8,1.2.9,2.3,1.1.3,1.6-.7.5,2.1.6,2.5.7,1.6-.2,0,2.1,2.4.9,1.9-2.6,3.8,2.7,3.1,4.1-.1.7,1.8,2.6,1,3.3,0,1,.5,2.5-.2,3.2-1.7.3-4.2.4-5.9.1-2.9.1-1.1-.8-2.4-2.4-1.7-.7-.5,1.1-1.3,1.9-2,.4-2.4,0-3-1.4-.4-1.6-2.2-2.8-3.9-2.8-.5.5,2.2,2.3,2.4,2.8.4,1.7-2,2.1-3.1,1.3-.2-1.5-3.2-2.6-4.2-3.6-4.3-1,1.9,2.6,2.1,3.3,2,1.1.6,2.5-1,2.5-1.3.7,1.4.2,1.7.2,1.8-.3,7.5-2.6,7.5,0,.4.4.8.2,1.3.1,1.7-.8,7-1.5,8.3-.5.9,1.7-2.4,2.8-3.5,2.8-1.1.2-4.3,1.6-4.3,2.4-.3.5-4.2,1.8-3.7,2.5,1.8.2,7.3-5.2,7.3-2,.8.8,1.8-.6,1.8-1.3.7-.5,3.6-3,4.3-2.5.2.9.4,4.4,1.2,4.8,0,0,0,0,0,0-.6,0-1.1,0-1.5,0-.3,0-.6-.1-1-.2-.6,0-1.2,0-1.7,0-1.7,0-2.4,1.3-3.1,2.7-1.2.8-2.8,1.2-4,1.9-2,.2.2-1.8.2-2.6-.6-.6-6.5,2-7.7,2.3-1.6-1.2,3.4-5.7,4.3-6.3.2-2.2-9.9,0-11.9-2.7-1.3,0,4.8-2,1-3.5-.7,0-3.6-5.6-4.1-6.6h0c.1-.3.2-.5.4-.5h5c2,0,4.1,3.1,3.8-.9-.5-2.3,3.6,1,4.5,1.3,1,1,4,.2,5.2,1.5,1.3,0,4.1.7,5-.4,0-.7-4-3.8-4.9-3.9-1.6-.8-6-1.3-2.8-3.4.6-.6-.2-1.6-.5-2.1-2.5-3.4,3.8,0,4.8-1.3,0-1-1.2-4.7-1.2-4.8,2.3-1.1,2.9.5,3.1-2.9.6-4.5,1.8-.8,4.3-1.2,2.5-2.5.6,2.8,2.8,2.9.9.7.5,3.2,2.7,1.7.8-.1,2.9-1.6,3.5-.7-.3,3,0,2,1.9,2.6.7,1-1.3,2.5-.3,4.2,0,.8-4,4.5-2.5,4.9,1.3.4,2.9-1.1,3.7-2,.4-1.6,2.2-3.4,2.4-5,.9-.9,3.5,1.3,4.4-1.6,1.2-1.9,1.6,2,3.8-.2.6-1.2,5.8-2,3.8,0,0,1-1.2,1.9-.9,2.7.4.4,4,.3,1.8,1.4ZM135.3,87.5c1.5.4,1.8.6,1.8.6.8,1.8.4,4.9,1.2,6.6,0,2.7-.3,4.6-3.3,5.3h0c0,0-1,0-1,0,0,0-.6-.1-.5-1.4,2.4-1.6.9-4.6.9-6.8-.7-1.3-.4-2.7-.9-3.8,0,0,.3-1,1.8-.6Z"/>
  <path class="st2" d="M351.4,61.3h-59.2v31.2c2.6-3.2,6.2-5.8,11-7.8,4.8-2,9.8-3,15.2-3,9.7,0,17.7,2.1,23.9,6.4,6.2,4.3,10.7,9.7,13.5,16.3,2.8,6.6,4.2,13.7,4.2,21.3,0,14-4,25.3-12,33.8-8,8.5-19.3,12.8-34.1,12.8s-25-3.5-33.2-10.4c-8.3-6.9-13-16-14.1-27.2h24.8c1.1,4.9,3.6,8.8,7.4,11.7,3.8,2.9,8.7,4.4,14.7,4.4s12.6-2.3,16.3-6.8c3.7-4.5,5.5-10.5,5.5-17.9s-1.9-13.3-5.6-17.3c-3.7-3.9-9.2-5.9-16.3-5.9s-9.4,1.3-12.8,3.8c-3.4,2.6-5.8,6-7.3,10.2h-24.5V38.8h82.5v22.5Z"/>
</svg>