<?xml version="1.0" encoding="UTF-8"?>
<svg id="Layer_2" data-name="Layer 2" xmlns="http://www.w3.org/2000/svg" viewBox="0 0 519.6 488.77">
  <defs>
    <style>
      .cls-1 {
        fill: #dfb41d;
      }

      .cls-2 {
        fill: #4e97b8;
      }
    </style>
  </defs>
  <g id="Spakrans_Main_NoText">
    <g id="Spakrans_Main_NoText-2" data-name="Spakrans_Main_NoText">
      <path id="Top_of_Helmet" data-name="Top of Helmet" class="cls-2" d="M401.33,173.88s-63.5,34.94-124.48,68.11c-25.49,13.86-54.42,14.82-59.27,14.82-79.69,0-71.86-72.16-71.3-75.98,112.39-107.49,235.55-23.72,255.06-6.94Z"/>
      <path id="Circle" class="cls-2" d="M159.8,258.82c-36.08,0-65.43,29.35-65.43,65.43s29.35,65.42,65.43,65.42,65.43-29.35,65.43-65.42-29.35-65.43-65.43-65.43ZM214.59,319.01l-5.86.1c-1.06-10.21-5.27-19.47-11.6-26.86l4.08-4.17c7.39,8.45,12.27,19.14,13.39,30.93ZM190.96,286.19c-7.44-6.1-16.7-10.03-26.84-10.92v-5.86c11.71.92,22.41,5.48,30.93,12.59l-4.09,4.18ZM155.47,275.27c-10.14.88-19.4,4.82-26.84,10.92l-4.09-4.18c8.52-7.12,19.22-11.68,30.93-12.59v5.86ZM128.63,362.31c7.44,6.1,16.7,10.03,26.84,10.92v5.86c-11.71-.92-22.41-5.48-30.93-12.59l4.09-4.18ZM164.12,373.23c10.14-.88,19.4-4.82,26.84-10.92l4.09,4.18c-8.52,7.12-19.21,11.68-30.93,12.59v-5.86ZM118.39,288.08l4.08,4.17c-6.67,7.77-10.93,17.64-11.7,28.49l-5.86.1c.77-12.51,5.71-23.88,13.48-32.76ZM105.01,329.49l5.86-.1c1.06,10.21,5.27,19.47,11.6,26.85l-4.08,4.17c-7.39-8.45-12.27-19.14-13.39-30.93ZM201.2,360.42l-4.08-4.17c6.67-7.77,10.93-17.64,11.7-28.49l5.86-.1c-.77,12.51-5.71,23.88-13.48,32.76Z"/>
      <path id="Chin_Bar" data-name="Chin Bar" class="cls-2" d="M472.83,461.28c0,9.77-2.04,19.07-5.72,27.49h-151.74l-23.36-33.71-5.06-7.31-38.93-3-5.76-.45-20.57-13.48-51.73-33.91c24.09-3.18,44.53-18.09,55.38-38.78l25.39,3.04,8.74,1.05c.79.15,1.6.27,2.41.36l2.92.34,2.69.32,21.11,2.48,44.63,75.83c1.1,1.82,2.39,3.5,3.85,5.02,4.06,4.26,9.35,7.24,15.11,8.49,2.03.45,4.12.68,6.23.68h114.19c.15,1.83.22,3.67.22,5.54Z"/>
      <g id="Chin_bar_Bezel" data-name="Chin bar Bezel">
        <path class="cls-2" d="M466.49,437.57h-108.07c-3.92,0-7.6-2.06-9.61-5.38l-4.13-7.02-40.97-69.6c-2.63-4.33-7.18-7.25-12.18-7.8l-27.55-3.24c-8-.9-14.69-6.45-17.04-14.15l-.03-.08-6.17-29.53c-.01-.08-.03-.16-.07-.28-2.68-9.16,1.29-18.75,9.64-23.33l166.09-90.58c-2.04-2.01-4.12-3.98-6.23-5.92l-163.79,89.33c-11.65,6.41-17.25,19.8-13.62,32.57l.02.07,6.17,29.52c.02.12.05.23.07.3,3.22,10.99,12.65,18.92,24.03,20.19l27.55,3.24c2.52.29,4.79,1.73,6.09,3.88l45.1,76.61c3.5,5.78,9.87,9.37,16.63,9.37h110.59c-.67-2.8-1.51-5.53-2.52-8.17Z"/>
      </g>
      <path class="cls-2" d="M159.8,258.82c-36.08,0-65.43,29.35-65.43,65.43s29.35,65.42,65.43,65.42,65.43-29.35,65.43-65.42-29.35-65.43-65.43-65.43ZM214.59,319.01l-5.86.1c-1.06-10.21-5.27-19.47-11.6-26.86l4.08-4.17c7.39,8.45,12.27,19.14,13.39,30.93ZM190.96,286.19c-7.44-6.1-16.7-10.03-26.84-10.92v-5.86c11.71.92,22.41,5.48,30.93,12.59l-4.09,4.18ZM155.47,275.27c-10.14.88-19.4,4.82-26.84,10.92l-4.09-4.18c8.52-7.12,19.22-11.68,30.93-12.59v5.86ZM128.63,362.31c7.44,6.1,16.7,10.03,26.84,10.92v5.86c-11.71-.92-22.41-5.48-30.93-12.59l4.09-4.18ZM164.12,373.23c10.14-.88,19.4-4.82,26.84-10.92l4.09,4.18c-8.52,7.12-19.21,11.68-30.93,12.59v-5.86ZM118.39,288.08l4.08,4.17c-6.67,7.77-10.93,17.64-11.7,28.49l-5.86.1c.77-12.51,5.71-23.88,13.48-32.76ZM105.01,329.49l5.86-.1c1.06,10.21,5.27,19.47,11.6,26.85l-4.08,4.17c-7.39-8.45-12.27-19.14-13.39-30.93ZM201.2,360.42l-4.08-4.17c6.67-7.77,10.93-17.64,11.7-28.49l5.86-.1c-.77,12.51-5.71,23.88-13.48,32.76Z"/>
      <path id="Hair" class="cls-1" d="M294.79,78.95c-15.2-28.46-2.84-60.81,6.78-78.68h-24.1c-5.96,10.03-8.78,19.16-8.29,36.85-5.08-10.94-7.99-22.63-5.19-36.32l-82.58,13.81c-5.55,22.79-4.08,29.63,0,50.33-4.56-3.59-16.3-29.98-14.2-45.61l-65.62,34.8c-1.75,7.29-.89,15.47,1,24.01-1.13-1.43-6.93-9.75-8.78-19.81l-7.82,6.47c.45,7.15.25,27.33,12.69,41.86-5.7-.55-22.9-22.16-25.41-31.15l-30.06,40.94s-1.71,7.84,0,11.18c1.71,3.34,7.17,13.6,10.11,22.36-5.54-7.01-11.4-12.87-17.62-17.43l-7.77,21.05c12.31,6.96,16.32,19.45,18.78,24.46l.18.41c-3.67-5.48-15.93-15.68-21.84-15.21l-5.04,90.1c7.33,7,20.55,39.49,20.55,39.49-3.16-4.49-21.27-15.81-21.27-15.81,7.24,19.1,15.29,43.56,19.08,69.34,3.79,25.77,1.62,58.17,1.62,58.17l15.85-12.29s-19.71,62.59-55.83,86.02c43.94,0,76.74-37.32,79.97-63.22l3.09-61.25c-2.72-8.62-6.37-23.55-17.7-34.75l21.44,12.56.98-80.27c-7.32-7.23-21.2-42.19-21.2-42.19,7.82,14.74,23.35,24.62,23.35,24.62,0,0,22.58-38.94,22.58-38.94-5.97-5.81-11.01-13.39-15.54-21.95,6.53,6.84,13.03,12.44,19.45,14.58l6.16-7.59c-3.9-2.85-17.39-16.09-19.22-32.78,6.28,9.04,15.98,17.78,26.69,26.44l35.07-27.35c-7.23-11.44-13.53-22.39-14.63-30.52,8.32,8.43,17.33,15.62,27.38,20.95l42.76-15.8c-1.69-7.85-.35-18.07,1.69-28.83-.47,9.62,15.05,25.3,15.05,25.3l.8-.21c-3.78-13.48-2.15-34.84,1.04-54.55-.91,13.49,10.99,50.46,13.54,51.32l85.8,7.89c8.36-28.2,32.33-42.16,32.33-42.16-5.74,5.85-19.11,34.31-19.65,47.86,1.92.97,45.62,22.99,45.62,22.99-4.07-17.11,5.1-47.75,18.89-49.9,0,0-11.2,21.72-5.69,34.21,26.9-46.33,88.1-66.24,109.55-72.32-8.2-4.12-107.08-57.16-199.03-62.39-14.57,16.15-24.33,40.48-25.78,78.95Z"/>
      <g>
        <path class="cls-1" d="M360.51,238.12c-1.61,0-2.98,1.34-3.04,2.95-.06,1.64,1.32,3.09,2.98,3.13,1.65.04,3.08-1.36,3.1-3.01.02-1.65-1.39-3.07-3.04-3.07Z"/>
        <path class="cls-1" d="M360.75,257.91c-1.44-.12-2.61.87-2.69,2.27-.09,1.44.93,2.58,2.34,2.64,1.39.06,2.49-.92,2.57-2.28.08-1.39-.87-2.52-2.22-2.63Z"/>
        <path class="cls-1" d="M370.02,286.8c-1.23.05-2.27,1.14-2.27,2.36,0,1.27,1.12,2.38,2.39,2.36,1.27-.02,2.37-1.15,2.33-2.42-.04-1.27-1.19-2.36-2.45-2.3Z"/>
        <path class="cls-1" d="M370.14,306.59c-.98-.01-1.75.71-1.79,1.68-.05,1.03.71,1.84,1.74,1.85.98.01,1.75-.71,1.79-1.68.05-1.03-.71-1.84-1.74-1.85Z"/>
        <path class="cls-1" d="M368.7,327.54c0,.87.79,1.03,1.25,1.11.36.06,1.58-.2,1.58-1.15s-1.26-1.08-1.66-1.04c-.43.05-1.17.2-1.17,1.08Z"/>
        <path class="cls-1" d="M370.08,267.08c-1.54.02-2.81,1.28-2.85,2.81-.03,1.58,1.26,2.92,2.84,2.94,1.58.02,2.91-1.29,2.91-2.87,0-1.58-1.32-2.89-2.9-2.88Z"/>
        <path class="cls-1" d="M350.87,268.49c-.89.02-1.41.53-1.43,1.42-.02.95.5,1.5,1.45,1.52.96.02,1.43-.55,1.52-1.48-.1-.93-.58-1.48-1.54-1.46Z"/>
        <path class="cls-1" d="M350.9,248.61c-1.15,0-2.12.98-2.13,2.13-.01,1.2,1.02,2.21,2.22,2.16,1.15-.04,2.1-1.04,2.07-2.19-.02-1.15-1.01-2.11-2.16-2.1Z"/>
        <path class="cls-1" d="M360.42,277.61c-1.07.04-1.86.87-1.86,1.95,0,1.12.85,1.96,1.98,1.95,1.12-.01,1.95-.88,1.92-2.01-.03-1.12-.91-1.93-2.04-1.89Z"/>
        <path class="cls-1" d="M360.61,297.47c-.78-.22-1.46.4-1.4,1.2.05.56.39,1.6.95,1.62s-.12.03.57.03,1.05-1.02,1.05-1.53c0-.46-.67-1.17-1.17-1.31Z"/>
        <path class="cls-1" d="M353.42,231.97c-1.27.7-2.33,1.29-3.42,1.89,1.57.6,2.75.01,3.42-1.89Z"/>
        <path class="cls-1" d="M379.46,315.81c-1.15,0-2.12.98-2.13,2.13-.01,1.2,1.02,2.21,2.22,2.16,1.15-.04,2.1-1.04,2.07-2.19-.02-1.15-1.01-2.11-2.16-2.1Z"/>
        <path class="cls-1" d="M370.08,247.4c-1.84.02-3.34,1.55-3.32,3.39.02,1.84,1.55,3.34,3.39,3.32,1.84-.02,3.34-1.55,3.32-3.39-.02-1.84-1.55-3.34-3.39-3.32Z"/>
        <path class="cls-1" d="M379.7,256.66c-2.08,0-3.71,1.66-3.69,3.74.02,2.03,1.62,3.63,3.65,3.66,2.08.03,3.74-1.6,3.75-3.68.01-2.07-1.63-3.72-3.71-3.72Z"/>
        <path class="cls-1" d="M381.46,217.73c-.73-.3-1.39-.4-2.12.1-.84.57-1.74,1.09-2.68,1.45-.97.37-1.33,1.06-1.48,1.97-.44,2.76,1.72,5.28,4.52,5.28,2.2,0,4.09-1.57,4.51-3.73.4-2.08-.78-4.24-2.75-5.06Z"/>
        <path class="cls-1" d="M388.34,385.16c0,.56.4.71.66.73.31.02,1.21-.01,1.21-.65s-.83-.85-1.06-.81c-.32.06-.82.17-.82.73Z"/>
        <path class="cls-1" d="M389.26,236.42c2.73.02,4.89-2.09,4.91-4.82.02-2.73-2.09-4.89-4.82-4.91-2.73-.02-4.89,2.09-4.91,4.82-.02,2.73,2.09,4.89,4.82,4.91Z"/>
        <path class="cls-1" d="M379.76,276.37c-1.79-.02-3.2,1.33-3.24,3.11-.04,1.84,1.37,3.28,3.2,3.27,1.79,0,3.17-1.38,3.18-3.17.01-1.79-1.36-3.19-3.14-3.21Z"/>
        <path class="cls-1" d="M379.71,237.03c-2.3,0-4.1,1.77-4.13,4.06-.03,2.36,1.77,4.19,4.12,4.19,2.3,0,4.1-1.77,4.13-4.06.03-2.36-1.77-4.19-4.12-4.19Z"/>
        <path class="cls-1" d="M379.83,296.07c-1.56-.05-2.77,1.09-2.8,2.63-.02,1.5,1.09,2.69,2.57,2.74,1.56.05,2.77-1.09,2.8-2.63.02-1.5-1.09-2.69-2.57-2.74Z"/>
        <path class="cls-1" d="M378.59,356.36c0,.55.5.86.81.88.37.02,1.13-.2,1.13-.89s-.7-.93-.98-.88c-.38.07-.96.34-.96.89Z"/>
        <path class="cls-1" d="M370.09,227.72c-2.1.01-3.81,1.73-3.82,3.83,0,2.1,1.7,3.83,3.8,3.85,2.14.02,3.9-1.74,3.88-3.89-.03-2.09-1.76-3.8-3.86-3.79Z"/>
        <path class="cls-1" d="M349.97,289.2c0,.84.62.84.93.84.37,0,1.39-.07,1.39-.92s-1.07-.92-1.35-.85c-.38.09-.97.09-.97.93Z"/>
        <path class="cls-1" d="M379.43,335.57c-.87.02-1.62.8-1.54,1.66.09.92.64,1.45,1.56,1.51.86.05,1.61-.72,1.61-1.59,0-.87-.76-1.6-1.63-1.58Z"/>
        <path class="cls-1" d="M443.58,279.5c-.02-3.46-2.79-6.21-6.26-6.21-3.52,0-6.29,2.79-6.27,6.32.02,3.46,2.79,6.21,6.26,6.21,3.52,0,6.29-2.79,6.27-6.32Z"/>
        <path class="cls-1" d="M447.01,302.18c-3.35-.08-6.22,2.71-6.28,6.1-.06,3.36,2.75,6.21,6.13,6.25,3.37.03,6.21-2.78,6.22-6.16,0-3.33-2.72-6.11-6.07-6.19Z"/>
        <path class="cls-1" d="M462.71,317.96c0-3.49-2.91-6.41-6.4-6.43-3.53-.02-6.51,2.97-6.46,6.49.04,3.5,2.98,6.4,6.46,6.37,3.5-.02,6.4-2.94,6.4-6.43Z"/>
        <path class="cls-1" d="M437.39,292.86c-3.21-.06-5.89,2.55-5.97,5.79-.08,3.25,2.61,5.99,5.88,6,3.22.01,5.88-2.62,5.91-5.85.03-3.21-2.58-5.88-5.82-5.94Z"/>
        <path class="cls-1" d="M427.69,294.75c3.15.01,5.63-2.48,5.61-5.63-.02-3.1-2.47-5.54-5.57-5.55-3.15-.01-5.63,2.48-5.61,5.63.02,3.1,2.47,5.54,5.57,5.55Z"/>
        <path class="cls-1" d="M418.15,274.24c-2.99-.02-5.34,2.3-5.36,5.28-.02,2.99,2.3,5.34,5.28,5.36,2.99.02,5.34-2.3,5.36-5.28.02-2.99-2.3-5.34-5.28-5.36Z"/>
        <path class="cls-1" d="M462.29,337.17c0-3.35-2.66-6.02-6-6.02-3.35,0-6.02,2.66-6.02,6,0,3.35,2.66,6.02,6,6.02,3.35,0,6.02-2.66,6.02-6Z"/>
        <path class="cls-1" d="M451.03,375.61c.03,2.82,2.38,5.17,5.2,5.2,2.86.03,5.28-2.37,5.29-5.23,0-2.87-2.4-5.27-5.26-5.26-2.87.01-5.26,2.44-5.23,5.29Z"/>
        <path class="cls-1" d="M389.09,364.41c-.94,0-1.31,1.06-1.29,1.57.02.46.39,1.27,1.21,1.27s1.45-.45,1.35-1.25c-.07-.56-.34-1.59-1.28-1.59Z"/>
        <path class="cls-1" d="M446.76,352.09c2.97-.04,5.28-2.4,5.25-5.39-.02-2.98-2.38-5.29-5.36-5.28-2.98.01-5.31,2.35-5.31,5.33,0,3.03,2.38,5.38,5.42,5.34Z"/>
        <path class="cls-1" d="M461.89,356.53c.1-3.13-2.33-5.7-5.48-5.79-3.13-.08-5.69,2.37-5.76,5.51-.07,3.13,2.4,5.68,5.54,5.73,3.09.05,5.59-2.35,5.7-5.45Z"/>
        <path class="cls-1" d="M446.62,333.31c3.19.02,5.81-2.58,5.81-5.77,0-3.14-2.57-5.72-5.71-5.75-3.19-.02-5.81,2.58-5.81,5.77,0,3.14,2.57,5.72,5.71,5.75Z"/>
        <path class="cls-1" d="M437.09,312.46c-3-.01-5.51,2.48-5.52,5.48-.01,3,2.48,5.51,5.48,5.52,3,.01,5.51-2.48,5.52-5.48.01-3-2.48-5.51-5.48-5.52Z"/>
        <path class="cls-1" d="M404.62,204.06c-2.67,1.45-5.12,2.78-7.59,4.12,2.83,1.41,6.51-.47,7.59-4.12Z"/>
        <path class="cls-1" d="M398.89,227.52c3.16,0,5.62-2.47,5.59-5.64-.03-3.1-2.5-5.51-5.61-5.5-3.1.02-5.53,2.47-5.53,5.58,0,3.11,2.44,5.55,5.55,5.55Z"/>
        <path class="cls-1" d="M341.23,239.51c-.96.1-1.52.67-1.57,1.64-.05.9.77,1.68,1.67,1.67.9-.01,1.67-.81,1.64-1.71-.03-.9-.85-1.69-1.74-1.6Z"/>
        <path class="cls-1" d="M414.77,212.56c.07-3.5-2.6-6.37-6.02-6.45-3.55-.09-6.43,2.63-6.49,6.11-.05,3.49,2.65,6.33,6.08,6.4,3.49.06,6.35-2.63,6.43-6.05Z"/>
        <path class="cls-1" d="M340.14,260.36c0,1.1.8,1.02,1.27,1.09.36.05,1.55-.17,1.56-1.18s-1.27-1.06-1.68-1.01c-.43.06-1.15,0-1.15,1.1Z"/>
        <path class="cls-1" d="M427.71,263.94c-3.35,0-6.01,2.67-6.01,6.01,0,3.35,2.67,6.01,6.01,6.01,3.35,0,6.01-2.67,6.01-6.01,0-3.35-2.67-6.01-6.01-6.01Z"/>
        <path class="cls-1" d="M391.84,216.95c2.47-1.36,3.37-4.26,2.06-7.05-3.1,1.69-6.12,3.34-9.15,5,1.64,2.63,4.56,3.45,7.09,2.05Z"/>
        <path class="cls-1" d="M418.09,254.6c-3.14.01-5.71,2.59-5.73,5.72-.02,3.19,2.59,5.8,5.78,5.79,3.14-.01,5.71-2.59,5.73-5.72.02-3.19-2.59-5.8-5.78-5.79Z"/>
        <path class="cls-1" d="M408.48,256.24c2.99.02,5.51-2.49,5.51-5.48,0-2.99-2.53-5.5-5.51-5.48-2.95.02-5.41,2.47-5.45,5.42-.04,2.98,2.46,5.52,5.45,5.54Z"/>
        <path class="cls-1" d="M398.94,235.96c-2.83-.03-5.2,2.32-5.23,5.16-.03,2.83,2.32,5.2,5.16,5.23,2.83.03,5.2-2.32,5.23-5.16.03-2.83-2.32-5.2-5.16-5.23Z"/>
        <path class="cls-1" d="M408.45,225.7c-3.26.04-5.84,2.67-5.8,5.92.04,3.26,2.67,5.84,5.92,5.8,3.26-.04,5.84-2.67,5.8-5.92-.04-3.26-2.67-5.84-5.92-5.8Z"/>
        <path class="cls-1" d="M424.26,241.26c.08-3.36-2.71-6.22-6.11-6.25-3.33-.03-6.11,2.68-6.19,6.05-.08,3.36,2.71,6.22,6.11,6.25,3.33.03,6.11-2.68,6.19-6.05Z"/>
        <path class="cls-1" d="M359.54,317.99c0,.77.43.69.69.7.31.01,1.19.07,1.19-.7s-.86-.82-1.09-.77c-.32.07-.79-.01-.79.76Z"/>
        <path class="cls-1" d="M427.58,421.16c-1.32-.06-2.48,1.02-2.5,2.34-.03,1.28,1,2.38,2.28,2.44,1.32.06,2.48-1.02,2.5-2.34.03-1.28-1-2.38-2.28-2.44Z"/>
        <path class="cls-1" d="M427.47,332.34c2.62,0,4.8-2.19,4.78-4.81-.02-2.62-2.22-4.79-4.84-4.75-2.62.03-4.77,2.26-4.72,4.87.05,2.58,2.21,4.69,4.78,4.69Z"/>
        <path class="cls-1" d="M427.45,401.46c-1.61,0-2.87,1.27-2.88,2.88,0,1.62,1.24,2.89,2.85,2.91,1.67.02,2.96-1.28,2.94-2.94-.02-1.61-1.3-2.86-2.91-2.85Z"/>
        <path class="cls-1" d="M427.74,313.58c2.83-.02,5.19-2.4,5.19-5.23,0-2.82-2.37-5.2-5.2-5.22-2.82-.02-5.21,2.33-5.25,5.17-.04,2.86,2.39,5.31,5.26,5.28Z"/>
        <path class="cls-1" d="M427.43,381.76c-1.91.02-3.37,1.52-3.35,3.44.02,1.91,1.52,3.37,3.44,3.35,1.91-.02,3.37-1.52,3.35-3.44-.02-1.91-1.52-3.37-3.44-3.35Z"/>
        <path class="cls-1" d="M427.52,362.08c-2.18-.02-3.9,1.65-3.92,3.82-.02,2.18,1.66,3.9,3.82,3.92,2.18.02,3.9-1.65,3.92-3.82.02-2.18-1.65-3.9-3.82-3.92Z"/>
        <path class="cls-1" d="M418.04,352.79c-1.92-.11-3.64,1.47-3.74,3.42-.09,1.87,1.43,3.55,3.34,3.7,1.91.15,3.66-1.4,3.79-3.36.13-1.91-1.44-3.65-3.39-3.76Z"/>
        <path class="cls-1" d="M417.91,313.47c-2.44-.03-4.52,2.03-4.52,4.47,0,2.44,2.06,4.51,4.5,4.49,2.45-.02,4.5-2.1,4.46-4.53-.04-2.41-2.03-4.41-4.44-4.43Z"/>
        <path class="cls-1" d="M417.85,392.16c-1.38.01-2.59,1.24-2.57,2.61.01,1.38,1.24,2.59,2.61,2.57,1.38-.01,2.59-1.24,2.57-2.61-.01-1.38-1.24-2.59-2.61-2.57Z"/>
        <path class="cls-1" d="M417.93,372.47c-1.68-.04-3.16,1.43-3.14,3.11.02,1.65,1.44,3.05,3.08,3.05,1.64,0,3.06-1.41,3.08-3.05.02-1.64-1.37-3.07-3.02-3.11Z"/>
        <path class="cls-1" d="M427.51,342.43c-2.41-.02-4.35,1.89-4.37,4.29-.02,2.41,1.89,4.35,4.29,4.37,2.41.02,4.35-1.89,4.37-4.29.02-2.41-1.89-4.35-4.29-4.37Z"/>
        <path class="cls-1" d="M417.9,333.1c-2.19-.02-4.06,1.82-4.08,4.02-.02,2.19,1.82,4.06,4.02,4.08,2.19.02,4.06-1.82,4.08-4.02.02-2.19-1.82-4.06-4.02-4.08Z"/>
        <path class="cls-1" d="M437.09,371.35c-2.35-.01-4.27,1.93-4.23,4.27.04,2.31,1.95,4.16,4.24,4.14,2.31-.03,4.17-1.91,4.17-4.21,0-2.31-1.88-4.18-4.18-4.2Z"/>
        <path class="cls-1" d="M446.69,380.64c-2.44-.02-4.52,2.04-4.53,4.49-.02,2.44,2.04,4.52,4.49,4.53,2.44.02,4.52-2.04,4.53-4.49.02-2.44-2.04-4.52-4.49-4.53Z"/>
        <path class="cls-1" d="M446.62,400.29c-2.2.03-4.01,1.86-4.02,4.07,0,2.25,1.87,4.11,4.13,4.07,2.2-.03,4.01-1.86,4.02-4.07,0-2.25-1.87-4.11-4.13-4.07Z"/>
        <path class="cls-1" d="M456.3,399.55c2.64-.01,4.78-2.19,4.77-4.83-.01-2.64-2.19-4.78-4.83-4.77-2.64.01-4.78,2.19-4.77,4.83.01,2.64,2.19,4.78,4.83,4.77Z"/>
        <path class="cls-1" d="M437.12,342.21c2.79-.02,5-2.25,5.01-5.05,0-2.84-2.26-5.09-5.11-5.07-2.79.02-5,2.25-5.01,5.05,0,2.84,2.26,5.09,5.11,5.07Z"/>
        <path class="cls-1" d="M456.4,409.61c-2.5-.05-4.46,1.84-4.48,4.31-.02,2.43,1.86,4.36,4.28,4.39,2.44.03,4.38-1.84,4.42-4.25.04-2.44-1.81-4.4-4.22-4.45Z"/>
        <path class="cls-1" d="M446.73,419.95c-1.99-.03-3.61,1.51-3.67,3.49-.06,2.04,1.52,3.7,3.55,3.73,1.99.03,3.61-1.51,3.67-3.49.06-2.04-1.52-3.7-3.55-3.73Z"/>
        <path class="cls-1" d="M437.05,391c-2.04.01-3.75,1.74-3.73,3.77.01,2.04,1.74,3.75,3.77,3.73,2.04-.01,3.75-1.74,3.73-3.77-.01-2.04-1.74-3.75-3.77-3.73Z"/>
        <path class="cls-1" d="M446.63,370.9c2.71.03,4.97-2.22,4.98-4.93,0-2.67-2.15-4.88-4.84-4.95-2.69-.07-4.99,2.15-5.04,4.87-.05,2.7,2.18,4.98,4.9,5.01Z"/>
        <path class="cls-1" d="M437.1,410.71c-1.75-.01-3.2,1.38-3.27,3.14-.07,1.79,1.36,3.31,3.16,3.36,1.79.05,3.3-1.4,3.33-3.2.03-1.79-1.43-3.29-3.23-3.3Z"/>
        <path class="cls-1" d="M417.91,411.95c-1.15-.02-2.06.88-2.05,2.03.01,1.15.94,2.03,2.09,1.99,1.1-.04,1.94-.93,1.93-2.03-.01-1.11-.87-1.97-1.97-1.99Z"/>
        <path class="cls-1" d="M437.18,351.73c-2.61-.05-4.68,1.93-4.73,4.52-.05,2.61,1.93,4.68,4.52,4.73,2.61.05,4.68-1.93,4.73-4.52.05-2.61-1.93-4.68-4.52-4.73Z"/>
        <path class="cls-1" d="M408.29,422.6c-.41,0-.94.61-.98.99-.04.36,0,1.51,1.04,1.51,1.3,0,.92-1.22.89-1.62-.03-.34-.27-.89-.95-.88Z"/>
        <path class="cls-1" d="M398.79,373.79c-1.03-.06-1.85.68-1.89,1.71-.03.98.68,1.76,1.65,1.82,1.03.06,1.85-.68,1.88-1.71.03-.98-.68-1.76-1.65-1.82Z"/>
        <path class="cls-1" d="M397.58,394.67c.01.43.11,1.26.98,1.26s1.09-.7,1.21-1.16c.09-.35-.14-1.3-1.08-1.3s-1.12.79-1.11,1.2Z"/>
        <path class="cls-1" d="M398.73,334.28c-1.58-.03-2.92,1.26-2.93,2.85-.02,1.58,1.3,2.9,2.88,2.9,1.58,0,2.89-1.33,2.87-2.91-.02-1.54-1.28-2.81-2.82-2.84Z"/>
        <path class="cls-1" d="M398.69,354c-1.26-.01-2.39,1.1-2.38,2.37,0,1.27,1.13,2.38,2.4,2.35,1.27-.02,2.36-1.16,2.32-2.43-.04-1.23-1.11-2.28-2.34-2.29Z"/>
        <path class="cls-1" d="M398.85,314.59c-1.87-.08-3.44,1.3-3.55,3.13-.11,1.92,1.31,3.53,3.19,3.61,1.92.08,3.5-1.36,3.55-3.25.05-1.87-1.36-3.41-3.19-3.49Z"/>
        <path class="cls-1" d="M398.83,265.14c2.61.05,4.83-2.11,4.86-4.73.03-2.62-2.14-4.82-4.76-4.83-2.57-.01-4.74,2.1-4.8,4.67-.06,2.61,2.08,4.84,4.7,4.89Z"/>
        <path class="cls-1" d="M389.04,325.02c-1.37.02-2.5,1.17-2.5,2.53,0,1.37,1.14,2.52,2.5,2.53,1.37.02,2.53-1.1,2.56-2.47.04-1.41-1.15-2.61-2.56-2.59Z"/>
        <path class="cls-1" d="M389.33,305.27c-1.69-.01-3.15,1.48-3.1,3.16.05,1.65,1.49,3.04,3.13,3.01,1.65-.03,3.05-1.46,3.04-3.1,0-1.64-1.42-3.06-3.07-3.07Z"/>
        <path class="cls-1" d="M389.33,265.93c-2.14-.01-3.97,1.75-4.05,3.92-.08,2.17,1.75,4.08,3.95,4.14,2.17.06,4.07-1.78,4.11-3.98.04-2.18-1.81-4.06-4.01-4.08Z"/>
        <path class="cls-1" d="M418.16,303.66c2.7-.03,4.85-2.18,4.85-4.88,0-2.75-2.2-4.94-4.94-4.91-2.7.03-4.85,2.18-4.85,4.88,0,2.75,2.2,4.94,4.94,4.91Z"/>
        <path class="cls-1" d="M389.31,246.27c-2.4,0-4.42,1.98-4.48,4.4-.06,2.43,1.97,4.53,4.43,4.57,2.44.04,4.52-2.01,4.54-4.46.02-2.44-2.04-4.51-4.49-4.51Z"/>
        <path class="cls-1" d="M389.37,285.59c-1.93-.04-3.61,1.6-3.63,3.54-.02,1.93,1.63,3.6,3.57,3.6,1.94,0,3.59-1.67,3.57-3.6-.02-1.89-1.62-3.5-3.51-3.54Z"/>
        <path class="cls-1" d="M408.37,343.57c-1.84-.05-3.28,1.35-3.29,3.19,0,1.79,1.37,3.18,3.16,3.2,1.79.02,3.2-1.35,3.23-3.13.03-1.79-1.32-3.21-3.1-3.26Z"/>
        <path class="cls-1" d="M408.28,363.27c-1.5,0-2.66,1.12-2.7,2.61-.03,1.55,1.13,2.75,2.67,2.76,1.5,0,2.66-1.12,2.7-2.61.03-1.55-1.13-2.75-2.67-2.76Z"/>
        <path class="cls-1" d="M408.29,323.86c-2.03,0-3.66,1.57-3.71,3.59-.06,2.07,1.55,3.76,3.62,3.8,2.08.04,3.75-1.58,3.77-3.65.03-2.08-1.61-3.73-3.68-3.74Z"/>
        <path class="cls-1" d="M398.9,294.91c-2.16,0-3.86,1.74-3.84,3.9.02,2.1,1.71,3.79,3.81,3.81,2.16.02,3.89-1.68,3.9-3.84,0-2.16-1.71-3.87-3.87-3.87Z"/>
        <path class="cls-1" d="M408.54,304.2c-2.35-.01-4.19,1.82-4.18,4.16,0,2.35,1.85,4.17,4.19,4.15,2.34-.02,4.16-1.87,4.12-4.22-.03-2.29-1.84-4.08-4.13-4.09Z"/>
        <path class="cls-1" d="M408.46,284.56c-2.54.02-4.54,2.01-4.55,4.56-.02,2.61,1.99,4.64,4.59,4.64,2.6,0,4.62-2.01,4.61-4.62,0-2.6-2.04-4.6-4.65-4.58Z"/>
        <path class="cls-1" d="M408.5,275c2.78,0,5.04-2.23,5.05-5.01.02-2.79-2.2-5.05-4.98-5.08-2.84-.03-5.12,2.23-5.11,5.07,0,2.78,2.25,5.02,5.04,5.02Z"/>
        <path class="cls-1" d="M398.83,275.24c-2.34.04-4.23,1.97-4.24,4.31,0,2.39,1.95,4.34,4.34,4.32,2.39-.01,4.32-1.98,4.3-4.37-.03-2.38-2.01-4.31-4.4-4.27Z"/>
        <path class="cls-1" d="M408.26,382.98c-1.19,0-2.13.91-2.17,2.09-.04,1.24.9,2.23,2.12,2.26,1.23.03,2.22-.92,2.23-2.15.01-1.24-.95-2.2-2.18-2.2Z"/>
        <path class="cls-1" d="M389.09,344.81c-1.13,0-1.97.84-1.97,1.96,0,1.08.8,1.9,1.87,1.94,1.13.04,2-.78,2.03-1.9.02-1.13-.81-1.99-1.93-2Z"/>
        <path class="cls-1" d="M408.29,402.78c-.92.03-1.48.56-1.59,1.47-.1.85.63,1.65,1.5,1.69.86.05,1.64-.67,1.67-1.54.03-.86-.71-1.66-1.57-1.63Z"/>
        <path class="cls-1" d="M424.08,193.77s-.16.06-.39.16c-.4-.02-.92.24-1.86.73-.25.13-.47.3-.71.49-.9.45-2.16,1.08-2.54,1.28-1.85.95-3.68,1.93-5.46,2.99-.08.05-.17.1-.25.16-.26.17-.53.36-.76.57-.31.27-.55.58-.65.9-.55,1.88-.22,3.81.73,5.36.95,1.55,2.53,2.72,4.46,3.06.71.13,1.44.12,2.15.08.36-.02.71-.05,1.06-.07.34-.03.68-.05,1-.05-.12,1-.42,2.19-.36,3.36.06,1.14.48,2.26.74,3.38-.46-.16-.9-.29-1.34-.39-.14-.03-.27-.04-.4-.07-.29-.05-.58-.11-.86-.14-.16-.01-.3,0-.46-.01-.24,0-.49-.03-.72-.01-.16,0-.31.05-.47.07-.21.03-.43.05-.63.09-.16.04-.3.1-.45.15-.19.06-.38.11-.56.19-.15.07-.28.16-.42.23-.17.09-.35.18-.51.29-.14.09-.26.21-.39.32-.15.13-.31.24-.45.38-.12.12-.23.27-.35.41-.12.14-.25.27-.37.43-.01.02-.02.03-.03.05-.01.02-.03.03-.04.04-.09.13-.15.27-.23.4-.1.17-.21.33-.3.51-.06.12-.1.24-.15.36-.09.22-.19.43-.25.65-.03.09-.04.18-.06.27-.06.25-.13.49-.16.75-.15,1.17.03,2.36.51,3.45.05.12.1.23.16.34.07.14.14.28.22.41.16.27.33.53.52.77,0,0,0,0,0,0,.01.02.03.03.04.04.19.23.4.44.62.64.07.06.14.12.21.18.19.16.38.3.58.43.06.04.13.09.19.13.26.16.54.3.82.42.06.02.12.04.18.07.23.09.47.17.72.24.09.02.18.05.27.07.25.06.51.1.76.12.05,0,.11.02.16.02.31.02.62.02.93,0,.08,0,.16-.02.24-.03.24-.02.48-.06.71-.11.09-.02.18-.04.27-.06.31-.08.61-.18.91-.3.89-.39,1.64-.91,2.25-1.57.6-.66,1.06-1.45,1.38-2.36.55-1.58.36-3.14-.23-4.79-.08-.24-.18-.48-.28-.72.79.47,1.57.77,2.33.94.51.11,1,.17,1.49.18.73.02,1.43-.07,2.09-.2.09,1.95.17,3.82.26,5.68-1.6-.43-3.11-.46-4.48,0-.68.23-1.32.58-1.92,1.07s-1.15,1.11-1.64,1.88c-.18.28-.34.58-.47.89-.24.55-.39,1.14-.48,1.73-.05.39-.08.78-.07,1.17.04.98.29,1.96.76,2.83.16.29.34.57.54.84.29.38.59.71.9,1.01,1.4,1.34,3.01,1.89,4.82,1.79.02,0,.04,0,.06,0,.54-.03,1.09-.13,1.67-.28.48-.12.97-.28,1.47-.48-.31.62-.53,1.22-.68,1.82-.03.12-.06.24-.09.36-.4,1.97.02,3.86,1.21,5.77,0,0,0,0,0,0-.47-.22-.93-.41-1.37-.56-.01,0-.02,0-.04-.01-.44-.15-.86-.26-1.28-.34-.02,0-.04,0-.06-.01-.41-.08-.8-.12-1.18-.13-.03,0-.05,0-.08,0-.38,0-.74.02-1.09.07-.03,0-.06,0-.09.01-.35.06-.68.14-1,.26-.03.01-.06.02-.09.03-.32.12-.62.27-.91.44-.03.02-.07.04-.1.06-.28.18-.55.39-.81.62-.03.03-.06.05-.09.08-.25.24-.49.5-.71.79-.02.02-.04.04-.06.06-.01.02-.02.04-.04.06-.03.04-.05.07-.08.1-.05.07-.08.14-.12.21-.14.21-.27.42-.38.64-.04.08-.08.16-.12.25-.83,1.79-.84,3.86.15,5.64.09.15.18.29.27.44,0,0,0,.01.01.02.19.29.41.57.63.82.02.02.03.04.04.06.03.03.06.05.08.08.24.25.5.49.77.7,0,0,.01,0,.02.01.27.2.56.38.85.54.05.03.09.05.14.08.29.14.59.26.89.36.06.02.12.04.18.05.31.09.62.16.94.2.04,0,.08,0,.12.01.31.04.62.05.94.04.04,0,.07,0,.11,0,.32-.02.64-.06.96-.13.06-.01.12-.02.18-.04.31-.07.62-.17.93-.3.05-.02.1-.05.15-.07.32-.14.63-.3.93-.49.73-.47,1.32-1.02,1.77-1.63.45-.62.75-1.31.9-2.08.31-1.53.05-3.36-.8-5.5,2.17,1.38,4.41,1.71,6.93.86-.28.82-.45,1.61-.51,2.38,0,.03,0,.07-.01.1-.08,1.34.18,2.64.76,3.98-.02,0-.04,0-.06-.02-.42-.14-.84-.25-1.24-.34-.14-.03-.27-.04-.41-.06-.28-.05-.56-.1-.83-.12-.16-.01-.31,0-.46,0-.24,0-.48-.01-.71,0-.17.01-.32.06-.48.09-.21.04-.42.06-.62.11-.16.04-.31.12-.47.18-.19.07-.38.13-.57.22-.15.08-.29.18-.44.27-.18.11-.36.2-.52.33-.14.11-.28.25-.41.37-.16.14-.33.27-.48.43-.13.14-.26.32-.38.48-.14.17-.29.33-.42.52,0,0,0,.01-.01.02,0,0-.01.01-.02.02-.07.1-.11.2-.17.3-.12.19-.24.38-.33.58-.02.04-.03.09-.05.14-.83,1.84-.74,3.97.29,5.72,0,0,0,0,0,.01.13.21.25.43.4.63.04.06.09.1.13.16.01.02.02.04.04.06.05.06.11.12.16.18.07.09.15.18.23.26.08.09.17.18.25.26.08.08.15.16.23.23.09.08.17.15.26.23.08.07.16.14.24.2.09.07.18.13.27.2.08.06.16.12.25.17.09.06.18.11.28.16.08.05.17.1.25.14.09.05.19.09.29.13.09.04.17.08.26.11.1.04.2.07.29.1.09.03.18.06.26.08.1.03.2.05.3.07.09.02.18.04.27.06.1.02.21.03.31.04.09.01.18.02.27.03.11,0,.21,0,.32,0,.09,0,.19,0,.28,0,.11,0,.22-.01.33-.02.09,0,.19-.01.28-.02.11-.01.23-.03.34-.05.09-.02.19-.03.28-.05.12-.02.24-.06.36-.09.09-.02.18-.04.28-.07.12-.03.25-.08.37-.12.09-.03.18-.06.27-.09.14-.05.28-.11.42-.16.08-.03.16-.06.24-.09.21-.09.42-.19.63-.29.01,0,.03-.01.04-.02-.2.41-.37.8-.52,1.19-.3.77-.49,1.5-.58,2.2s-.08,1.36.04,1.99c.18.95.59,1.84,1.24,2.68.85,1.09,1.8,1.86,2.84,2.32.35.15.7.27,1.07.36.37.09.74.14,1.13.16.77.04,1.59-.04,2.44-.25.43-.1.86-.24,1.3-.4-.85,1.88-.97,3.64-.47,5.38.17.58.4,1.16.7,1.73-.57-.15-1.1-.27-1.61-.36-.17-.03-.32-.04-.48-.06-.33-.05-.67-.1-.97-.12-.18-.01-.35,0-.52,0-.26,0-.54-.01-.78,0-.18.01-.33.05-.5.08-.22.03-.46.06-.67.12-.16.04-.31.11-.46.17-.19.07-.39.13-.57.22-.15.07-.28.17-.42.26-.17.1-.34.2-.49.32-.13.1-.25.23-.38.35-.14.14-.29.27-.43.42-.12.14-.22.3-.33.45-.1.14-.22.27-.31.42-.02.04-.04.08-.06.11-.02.02-.03.04-.05.07-.03.05-.04.1-.07.14-.14.25-.26.5-.37.76-.01.03-.03.07-.04.1-.6,1.52-.67,3.19-.03,4.72.34.8.79,1.48,1.33,2.06.03.03.04.06.07.09.03.03.06.05.08.07.22.23.46.44.7.63.03.02.05.04.08.05.23.17.47.32.72.46.06.03.12.07.18.1.27.14.55.26.83.36.05.02.1.03.15.05.26.08.52.15.78.2.06.01.11.02.17.03.3.05.59.07.89.08.07,0,.13,0,.2,0,.28,0,.55-.02.83-.06.04,0,.08,0,.12-.01.3-.05.6-.12.9-.21.07-.02.14-.04.2-.07.3-.1.6-.22.88-.37.82-.42,1.51-.96,2.06-1.62.27-.33.51-.68.72-1.07.21-.39.38-.8.51-1.24.13-.42.21-.83.25-1.24,0-.04.01-.07.01-.11.05-.65,0-1.3-.14-1.95-.05-.22-.1-.44-.17-.65-.13-.44-.29-.87-.49-1.31.03.01.06.02.1.03.36.13.7.24,1.02.34.21.07.4.12.6.17.12.03.26.08.37.1.23.06.44.1.64.14.07.01.14.03.21.04.22.04.42.06.62.08.04,0,.09.01.14.01.2.02.4.02.59.01.03,0,.06,0,.1,0,.19,0,.38-.03.56-.06.02,0,.04,0,.07-.01.19-.04.37-.08.55-.14.01,0,.02,0,.04-.01.19-.06.37-.14.56-.23.12.5.23,1.01.35,1.51-.45,1.16-.31,2.21.35,4.73-.14-.03-.25-.04-.39-.06-1.5-.68-3.2-.6-4.72-.05-1.34.34-2.38,1.07-3.23,2.23-.15.18-.28.36-.4.55-1.5,2.4-1.34,5.54.4,7.75,1.06,1.35,2.43,2.35,4.1,2.46,1.6.1,3.24-.26,4.73-.4-.11.31-.2.63-.28.94-.03.11-.04.22-.07.33-.04.2-.09.4-.12.59-.02.14-.03.27-.05.41-.02.17-.04.33-.05.5-.01.15,0,.3-.01.46,0,.14,0,.28,0,.42,0,.17.02.33.03.49.01.12.02.24.03.35.02.18.06.35.09.52.02.1.03.19.05.29.04.19.1.36.15.54.02.07.04.15.07.22.06.19.14.37.22.55.02.05.04.11.07.16.09.19.19.37.29.55.02.03.04.07.06.11.12.19.24.36.37.53.02.02.03.04.05.06.14.18.29.34.45.5.01.01.02.02.03.03.17.16.34.31.53.45,0,0,.01,0,.02.01.19.14.39.27.61.38,0,0,0,0,0,0,.64.35,1.37.57,2.18.63.34,2,.66,4,.97,6.01h0c-.68.04-1.31.14-1.89.32,0,0,0,0-.01,0-.28.09-.56.19-.82.31-.02,0-.04.02-.05.03-.24.11-.48.24-.7.38-.04.02-.07.05-.11.08-.2.14-.39.28-.58.44-.06.05-.12.12-.18.18-.15.14-.3.29-.44.45-.09.11-.17.23-.26.35-.09.13-.19.25-.28.39-.17.27-.32.55-.46.86-1.17,2.55-.81,5.01,1.05,7.15.21.24.43.46.67.67.11.1.24.18.36.27.13.09.25.2.38.28.18.11.36.2.55.3.08.04.16.09.24.13.23.1.46.19.7.26.04.01.08.03.12.04.27.08.55.14.82.18,0,0,.02,0,.03,0,.87.13,1.77.06,2.64-.19.29,2.37.55,4.76.8,7.14h0s-.08-.05-.13-.07c-.1-.06-.22-.11-.36-.14-2.54-.69-4.78-.15-6.54,1.81-1.76,1.96-2.13,4.27-1.06,6.68,1.07,2.41,3.04,3.6,6.23,3.78.59-.21,1.69-.53,2.72-1.01.05-.02.09-.07.14-.12.08,1.03.15,2.06.21,3.09-.34,1.19-.29,2.35.22,3.5.06,1.08.13,2.16.19,3.24-.06-.07-.11-.15-.18-.21-1.74-1.62-4.46-1.9-6.58-.78-2.18,1.16-3.36,3.47-3.04,6,.29,2.32,2.05,4.34,4.35,4.87,1.84.43,3.52.04,5.1-1.06.15-.11.29-.22.4-.33.11-.11.21-.23.3-.35,0,0,0,0,0,0,.03.98.05,1.96.07,2.94-1.01,1.74-.96,3.85.11,5.58.01,1.23.03,2.46.04,3.7-.39-.58-.89-1.07-1.47-1.46-.01,0-.02-.02-.04-.03-.18-.12-.37-.24-.57-.34,0,0-.01,0-.02-.01-.2-.1-.41-.2-.62-.28,0,0,0,0,0,0-.19-.07-.38-.13-.57-.18-.05-.01-.11-.03-.16-.04-.15-.03-.29-.06-.44-.08-.06,0-.11-.02-.17-.02-.19-.02-.39-.03-.57-.03-3,.06-5.47,2.55-5.45,5.55.02,3,2.53,5.47,5.53,5.46.34,0,.66-.04.98-.1.09-.02.18-.03.27-.05.25-.06.49-.13.72-.22.12-.05.24-.1.36-.16.17-.08.33-.17.49-.27.14-.08.27-.18.39-.27.07-.06.14-.12.2-.17.28-.25.54-.52.76-.83,0,0,.01-.02.02-.02.13-.18.25-.38.36-.58,0,1.55,0,3.07,0,4.59-.6,1.49-.62,2.85-.03,4.29-.02,1.86-.04,3.71-.07,5.55,0,0,0,0,0,0-.05-.15-.12-.28-.18-.42-.05-.12-.11-.24-.17-.36-.07-.13-.15-.25-.23-.37-.08-.11-.16-.22-.25-.33-.08-.1-.16-.2-.25-.29-.18-.18-.37-.34-.57-.49-.07-.05-.14-.08-.21-.13-.17-.1-.34-.2-.52-.28-.09-.04-.19-.08-.29-.11-.19-.07-.38-.12-.58-.17-.09-.02-.18-.04-.28-.06-.3-.05-.6-.09-.93-.09-2.83-.01-5.09,2.26-5.07,5.09.02,2.77,2.27,5,5.05,5,.32,0,.62-.03.92-.08.09-.02.18-.04.27-.06.2-.05.4-.1.59-.17.09-.03.18-.06.27-.1.24-.1.47-.22.68-.36.09-.06.17-.14.26-.2.12-.09.23-.18.34-.29.1-.1.2-.2.29-.31.08-.09.14-.18.21-.28.22-.3.41-.63.56-1,0,0,0,0,0,0-.14,5.05-.39,10.08-.82,15.23,0-.09,0-.18,0-.28,0-.46-.19-1.06-.5-1.37-1.47-1.42-3.8-1.58-5.53-.49-1.75,1.1-2.56,3.24-1.97,5.21.62,2.08,1.72,2.78,4.33,2.78.44,0,.88,0,1.32,0,.69,0,1.17-.11,1.51-.35.12,0,.23,0,.32,0,10.06-25.68,14.69-52.05,14.69-81.29,0-58.96-22.7-111.84-59.52-152.23Z"/>
      </g>
    </g>
  </g>
</svg>