<?xml version="1.0" encoding="UTF-8"?>
<svg id="Layer_1" data-name="Layer 1" xmlns="http://www.w3.org/2000/svg" viewBox="0 0 424.11 399.21">
  <defs>
    <style>
      .cls-1 {
        stroke-width: 2.88px;
      }

      .cls-1, .cls-2, .cls-3, .cls-4, .cls-5, .cls-6 {
        stroke-miterlimit: 10;
      }

      .cls-1, .cls-2, .cls-7, .cls-4, .cls-5, .cls-6 {
        stroke: #00aeef;
      }

      .cls-1, .cls-2, .cls-7, .cls-6 {
        fill: #00aeef;
      }

      .cls-2, .cls-3 {
        stroke-width: 1.18px;
      }

      .cls-3 {
        fill: #ffde17;
        stroke: #ffde17;
      }

      .cls-7 {
        stroke-miterlimit: 10;
        stroke-width: 1.18px;
      }

      .cls-4 {
        stroke-width: 8.39px;
      }

      .cls-4, .cls-5 {
        fill: none;
      }

      .cls-5 {
        stroke-width: 6.99px;
      }

      .cls-6 {
        stroke-width: 1.44px;
      }
    </style>
  </defs>
  <path class="cls-2" d="m181.62,292.82l55.3,7.3,35.2,59.9c4.3,6.8,11.8,11,19.9,11l91.4-.7-.3,17.7-3.8,10.6-124.7-1.1-20.6-31.5-37.3-2.4-60.9-40.1h0c24.4-2.8,38.5-15.7,45.5-30.8l.3.1Z"/>
  <g>
    <circle class="cls-4" cx="130.02" cy="266.52" r="48.7"/>
    <circle class="cls-7" cx="129.95" cy="266.51" r="39.8" transform="translate(-145.11 377.22) rotate(-85.93)"/>
    <g>
      <line class="cls-5" x1="129.92" y1="221.22" x2="129.92" y2="311.82"/>
      <line class="cls-5" x1="98.32" y1="234.12" x2="161.62" y2="298.92"/>
      <line class="cls-5" x1="161.62" y1="234.12" x2="98.32" y2="298.92"/>
      <line class="cls-5" x1="84.72" y1="267.32" x2="175.22" y2="265.82"/>
    </g>
  </g>
  <g>
    <g>
      <path class="cls-1" d="m123.72,154.02c-2.1,32.4,43.7,67.1,93.6,49.2"/>
      <path class="cls-1" d="m123.62,154.62c24.6-49.5,136-79.8,208.5-8.5l-115,57.2"/>
    </g>
    <path class="cls-6" d="m189.62,261.02c5.8,23.5,13.1,27.2,32.3,27.4l15.3,1.8c3.1.4,5.8,2.1,7.4,4.8l16.2,27.7,17.7,31.8c1.4,2.2,4.8,6.7,10.8,9h14.3l78.6-.4-.7-3.7-78.3,1.1-11.8.1c-2.3,0-8-5.8-9.2-7.9l-17.9-30.6-16.4-28.8c-3.8-5.8-6.3-6.1-8-6.3l-18.2-1.8c-18.9-2-19.7-1.1-27-19.1-1.1-2.7-1.9-5.6-2.3-8.5l-1.9-12.3c-.1-5.1,3.9-11.2,8.2-14.4l14.3-9,122.3-65.8.9-5.3-124.9,68.4-13.4,8.2c-8.2,5.7-11.6,11.8-10.3,21.2l2,12.4h0Z"/>
  </g>
  <g>
    <path class="cls-3" d="m363.62,252.32c1.2,0,1.2-1.8,0-1.8s-1.2,1.8,0,1.8h0Z"/>
    <path class="cls-3" d="m363.62,252.32c1.2,0,1.2-1.8,0-1.8s-1.2,1.8,0,1.8h0Z"/>
    <path class="cls-3" d="m354.72,232.72c1.2,0,1.2-1.8,0-1.8s-1.2,1.8,0,1.8h0Z"/>
    <path class="cls-3" d="m362.22,265.22c1.2,0,1.2-1.8,0-1.8s-1.1,1.8,0,1.8h0Z"/>
    <path class="cls-3" d="m370.22,241.62c1.2,0,1.2-1.8,0-1.8s-1.1,1.8,0,1.8h0Z"/>
    <path class="cls-3" d="m367.62,231.02c1.2,0,1.2-1.8,0-1.8s-1.2,1.8,0,1.8h0Z"/>
    <path class="cls-3" d="m360.02,215.92c1.2,0,1.2-1.8,0-1.8-1.1,0-1.1,1.8,0,1.8h0Z"/>
    <path class="cls-3" d="m360.92,229.82c1.2,0,1.2-1.8,0-1.8s-1.2,1.8,0,1.8h0Z"/>
    <path class="cls-3" d="m367.12,235.42c1.2,0,1.2-1.8,0-1.8s-1.1,1.8,0,1.8h0Z"/>
    <path class="cls-3" d="m341.42,237.62c1.2,0,1.2-1.8,0-1.8s-1.2,1.8,0,1.8h0Z"/>
    <path class="cls-3" d="m362.22,283.82c1.2,0,1.2-1.8,0-1.8s-1.1,1.8,0,1.8h0Z"/>
    <path class="cls-3" d="m365.32,328.72c2.3,0,2.3-3.6,0-3.6s-2.3,3.6,0,3.6h0Z"/>
    <path class="cls-3" d="m320.52,237.62c2.3,0,2.3-3.6,0-3.6s-2.3,3.6,0,3.6h0Z"/>
    <path class="cls-3" d="m338.72,200.32c2.3,0,2.3-3.6,0-3.6s-2.3,3.6,0,3.6h0Z"/>
    <path class="cls-3" d="m360.02,225.22c2.3,0,2.3-3.6,0-3.6s-2.3,3.6,0,3.6h0Z"/>
    <path class="cls-3" d="m365.82,291.32c2.3,0,2.3-3.6,0-3.6s-2.3,3.6,0,3.6h0Z"/>
    <path class="cls-3" d="m349.52,227.62c1.2,0,1.2-1.8,0-1.8s-1.1,1.8,0,1.8h0Z"/>
    <path class="cls-3" d="m354.82,239.22c1.2,0,1.2-1.8,0-1.8s-1.1,1.8,0,1.8h0Z"/>
    <path class="cls-3" d="m362.12,238.62c2.3,0,2.3-3.6,0-3.6s-2.3,3.6,0,3.6h0Z"/>
    <path class="cls-3" d="m340.82,232.92c2.3,0,2.3-3.6,0-3.6s-2.3,3.6,0,3.6h0Z"/>
    <path class="cls-3" d="m334.12,212.12c2.3,0,2.3-3.6,0-3.6s-2.3,3.6,0,3.6h0Z"/>
    <path class="cls-3" d="m306.62,258.92c2.3,0,2.3-3.6,0-3.6s-2.4,3.6,0,3.6h0Z"/>
    <g>
      <path class="cls-3" d="m361.82,243.42c1.2,0,1.2-1.8,0-1.8s-1.2,1.8,0,1.8h0Z"/>
      <path class="cls-3" d="m352.92,251.82c1.2,0,1.2-1.8,0-1.8s-1.2,1.8,0,1.8h0Z"/>
      <path class="cls-3" d="m356.92,247.02c1.2,0,1.2-1.8,0-1.8s-1.2,1.8,0,1.8h0Z"/>
      <path class="cls-3" d="m375.12,250.12c1.2,0,1.2-1.8,0-1.8s-1.1,1.8,0,1.8h0Z"/>
      <path class="cls-3" d="m374.22,270.52c1.2,0,1.2-1.8,0-1.8s-1.1,1.8,0,1.8h0Z"/>
      <path class="cls-3" d="m370.72,265.22c1.2,0,1.2-1.8,0-1.8s-1.2,1.8,0,1.8h0Z"/>
      <path class="cls-3" d="m351.12,215.42c1.2,0,1.2-1.8,0-1.8s-1.1,1.8,0,1.8h0Z"/>
      <path class="cls-3" d="m372.02,277.22c1.2,0,1.2-1.8,0-1.8s-1.2,1.8,0,1.8h0Z"/>
      <path class="cls-3" d="m344.02,245.62c2.3,0,2.3-3.6,0-3.6s-2.3,3.6,0,3.6h0Z"/>
      <path class="cls-3" d="m343.62,216.82c2.3,0,2.3-3.6,0-3.6s-2.3,3.6,0,3.6h0Z"/>
      <path class="cls-3" d="m368.02,253.62c2.3,0,2.3-3.6,0-3.6s-2.3,3.6,0,3.6h0Z"/>
      <path class="cls-3" d="m335.62,275.82c2.3,0,2.3-3.6,0-3.6s-2.3,3.6,0,3.6h0Z"/>
      <path class="cls-3" d="m367.62,307.42c2.3,0,2.3-3.6,0-3.6s-2.3,3.6,0,3.6h0Z"/>
      <path class="cls-3" d="m339.12,320.32c2.3,0,2.3-3.6,0-3.6s-2.3,3.6,0,3.6h0Z"/>
      <path class="cls-3" d="m366.22,262.52c2.3,0,2.3-3.6,0-3.6s-2.3,3.6,0,3.6h0Z"/>
      <path class="cls-3" d="m315.62,200.32c2.3,0,2.3-3.6,0-3.6s-2.3,3.6,0,3.6h0Z"/>
      <path class="cls-3" d="m358.12,255.12c2.3,0,2.3-3.6,0-3.6s-2.3,3.6,0,3.6h0Z"/>
      <path class="cls-3" d="m344.92,269.62c2.3,0,2.3-3.6,0-3.6s-2.3,3.6,0,3.6h0Z"/>
      <path class="cls-3" d="m326.32,227.92c2.3,0,2.3-3.6,0-3.6s-2.4,3.6,0,3.6h0Z"/>
      <path class="cls-3" d="m373.72,289.92c1.2,0,1.2-1.8,0-1.8s-1.2,1.8,0,1.8h0Z"/>
      <path class="cls-3" d="m357.72,288.92c1.2,0,1.2-1.8,0-1.8s-1.1,1.8,0,1.8h0Z"/>
      <path class="cls-3" d="m361.42,274.02c1.2,0,1.2-1.8,0-1.8s-1.2,1.8,0,1.8h0Z"/>
      <path class="cls-3" d="m347.62,253.72c1.2,0,1.2-1.8,0-1.8s-1.2,1.8,0,1.8h0Z"/>
      <path class="cls-3" d="m342.32,261.42c1.2,0,1.2-1.8,0-1.8s-1.2,1.8,0,1.8h0Z"/>
      <path class="cls-3" d="m351.52,256.52c1.2,0,1.2-1.8,0-1.8s-1.2,1.8,0,1.8h0Z"/>
      <path class="cls-3" d="m352.42,275.92c1.2,0,1.2-1.8,0-1.8s-1.1,1.8,0,1.8h0Z"/>
      <path class="cls-3" d="m337.52,251.22c1.2,0,1.2-1.8,0-1.8-1.2,0-1.2,1.8,0,1.8h0Z"/>
      <path class="cls-3" d="m341.32,224.72c1.2,0,1.2-1.8,0-1.8s-1.1,1.8,0,1.8h0Z"/>
      <path class="cls-3" d="m336.52,258.42c2.3,0,2.3-3.6,0-3.6s-2.3,3.6,0,3.6h0Z"/>
      <path class="cls-3" d="m376.12,302.82c2.3,0,2.3-3.6,0-3.6s-2.3,3.6,0,3.6h0Z"/>
      <path class="cls-3" d="m355.32,302.42c2.3,0,2.3-3.6,0-3.6s-2.3,3.6,0,3.6h0Z"/>
      <path class="cls-3" d="m346.62,282.12c2.3,0,2.3-3.6,0-3.6s-2.3,3.6,0,3.6h0Z"/>
      <path class="cls-3" d="m349.52,204.32c2.3,0,2.3-3.6,0-3.6s-2.3,3.6,0,3.6h0Z"/>
      <path class="cls-3" d="m336.02,179.22c2.3,0,2.3-3.6,0-3.6s-2.3,3.6,0,3.6h0Z"/>
      <path class="cls-3" d="m324.02,265.22c2.3,0,2.3-3.6,0-3.6s-2.4,3.6,0,3.6h0Z"/>
      <path class="cls-3" d="m340.42,291.32c2.3,0,2.3-3.6,0-3.6s-2.4,3.6,0,3.6h0Z"/>
    </g>
    <path class="cls-3" d="m377.52,284.52c2.3,0,2.3-3.6,0-3.6s-2.3,3.6,0,3.6h0Z"/>
  </g>
  <path class="cls-3" d="m341.02,158.82c22.6,22.6,41.2,51.3,47.7,83.1,7.8,36.1,1.6,74.9-10.7,109.1l-1.4-1.6c6.1-37,10.5-74.9,1.3-111.5-1.5-5.7-3.3-12-5.5-17.6-1.9-5.3-4.7-12-7.2-17.1-7.1-14.9-16.2-29.1-25.3-43.5l1.1-.9h0Z"/>
  <path class="cls-3" d="m333.22,111.02c7.7-9.6,19-21.8,34.9-33.2,20.8-14.8,40.8-22.1,54.5-25.9-19.1-11.4-44.6-24.3-75.9-34.4C312.42,6.52,281.82,2.22,258.32.62c-4.3,7.3-8.8,16.4-12.8,27.2-4.1,11.2-6.5,21.4-8,29.9-1.3-7.3-2.4-18.6.1-32.1,2-10.5,5.6-18.8,8.6-24.6-7.2-.1-14.4-.2-21.6-.3l-6,25.8-2.9-25.1-69.7,9.7,1.9,39.3c-2.4-2.8-5.9-7.4-8.3-14-3-8.5-2.7-15.9-2.3-19.9-18.5,9.3-37,18.6-55.5,28l.8,18.5-5-15.6-8,6,6.3,28.7-15.1-20.2c-8.1,11.3-16.2,22.6-24.3,34v9l6.1,14c-4.7-4.4-9.3-8.7-14-13.1-2.2,6.5-4.5,13.1-6.7,19.6,2.6,1.5,6.7,4.3,10.1,9,1.9,2.7,3.2,5.3,4,7.4-5.6-3.5-11.1-6.9-16.7-10.4l-2.7,75c3,3.5,6.5,8.3,9.6,14.4,2.7,5.3,4.5,10.2,5.6,14.3-5.1-3.5-10.2-7.1-15.2-10.6,4.2,13.6,8.2,29.1,11.2,46.4,3.7,21.6,5.2,41.2,5.5,58.1,3.6-3.1,7.3-6.1,10.9-9.2-2.9,8.4-6.9,17.8-12.4,27.7-9.7,17.7-20.9,31.2-30.3,40.8,6.7-.5,30.6-2.8,47.9-19.4,3.9-3.7,11.5-11,15.2-23.2,1.6-5.4,2-10.1,2-13.4.7-14.9,1.4-29.8,2.1-44.7-.2-2.6-.5-5.6-1.4-8.9-2-7.4-5.4-12.9-8.1-16.3,4.2,2.4,8.3,4.9,12.5,7.3l.8-64.9c-2.7-2.7-6.1-6.7-9.1-12.2-3.7-6.9-5.2-13.2-5.8-17.5.4,1.6,2.2,9.1,9.2,13.1,2.8,1.6,5.5,2.1,7.4,2.3,6.1-10.5,12.2-21,18.3-31.5l-8.4-14.2,11.6,8.3,5-6.1c-2.1-1.3-6.8-4.8-9.8-11.1-2.3-4.9-2.5-9.4-2.5-11.8,1.4,2.5,3.4,5.7,6.3,8.8,4.3,4.6,8.8,7.4,12,9,9.5-7.4,18.9-14.7,28.4-22.1-3.6-7-7.3-14-10.9-20.9,7.1,4.4,14.2,8.8,21.2,13.2l34.6-12.8,2.4-16.9c0,1.4.3,5,2.8,8.5,3.4,4.8,8.5,5.8,9.7,6.1-.4-12.6-.7-25.3-1.1-37.9l12.3,34.7,69.4,6.4c1.3-4.8,3.9-11.7,8.9-18.8,3.8-5.4,7.9-9.4,11.1-12.1-2.6,3.8-6.3,10-8.3,18.5-1.7,6.9-1.8,12.9-1.5,17.1,13,6.9,25.9,13.8,38.9,20.8-1.1-2.7-4.1-11.2-1.4-21.6,2.7-10.3,9.3-16.2,11.6-18.1-1,1.2-6.4,7.7-5.2,16.5.5,3.7,2.4,6.8,3.6,8.5Z"/>
</svg>